<?xml version="1.0" encoding="utf-8" standalone="no"?>
<!DOCTYPE svg PUBLIC "-//W3C//DTD SVG 1.1//EN"
  "http://www.w3.org/Graphics/SVG/1.1/DTD/svg11.dtd">
<!-- Created with matplotlib (https://matplotlib.org/) -->
<svg height="301.70526pt" version="1.1" viewBox="0 0 488.169365 301.70526" width="488.169365pt" xmlns="http://www.w3.org/2000/svg" xmlns:xlink="http://www.w3.org/1999/xlink">
 <metadata>
  <rdf:RDF xmlns:cc="http://creativecommons.org/ns#" xmlns:dc="http://purl.org/dc/elements/1.1/" xmlns:rdf="http://www.w3.org/1999/02/22-rdf-syntax-ns#">
   <cc:Work>
    <dc:type rdf:resource="http://purl.org/dc/dcmitype/StillImage"/>
    <dc:date>2021-12-30T18:18:39.301634</dc:date>
    <dc:format>image/svg+xml</dc:format>
    <dc:creator>
     <cc:Agent>
      <dc:title>Matplotlib v3.3.4, https://matplotlib.org/</dc:title>
     </cc:Agent>
    </dc:creator>
   </cc:Work>
  </rdf:RDF>
 </metadata>
 <defs>
  <style type="text/css">*{stroke-linecap:butt;stroke-linejoin:round;}</style>
 </defs>
 <g id="figure_1">
  <g id="patch_1">
   <path d="M 0 301.70526 
L 488.169365 301.70526 
L 488.169365 0 
L 0 0 
z
" style="fill:#ffffff;"/>
  </g>
  <g id="axes_1">
   <g id="patch_2">
    <path d="M 43.667308 134.138818 
L 232.504812 134.138818 
L 232.504812 45.145274 
L 43.667308 45.145274 
z
" style="fill:#ffffff;"/>
   </g>
   <g id="matplotlib.axis_1">
    <g id="xtick_1">
     <g id="line2d_1">
      <path clip-path="url(#p56469965e0)" d="M 43.667308 134.138818 
L 43.667308 45.145274 
" style="fill:none;stroke:#cccccc;stroke-linecap:round;stroke-width:0.8;"/>
     </g>
     <g id="text_1">
      <!-- $\mathdefault{1995}$ -->
      <g style="fill:#262626;" transform="translate(34.849636 146.90192)scale(0.0833 -0.0833)">
       <defs>
        <path d="M 26.59375 63.796875 
C 26.59375 65.890625 26.5 66 25.09375 66 
C 21.203125 61.359375 15.296875 59.890625 9.703125 59.6875 
C 9.40625 59.6875 8.90625 59.6875 8.796875 59.5 
C 8.703125 59.296875 8.703125 59.09375 8.703125 57 
C 11.796875 57 17 57.59375 21 59.984375 
L 21 7.296875 
C 21 3.796875 20.796875 2.59375 12.203125 2.59375 
L 9.203125 2.59375 
L 9.203125 0 
C 14 0.09375 19 0.1875 23.796875 0.1875 
C 28.59375 0.1875 33.59375 0.09375 38.40625 0 
L 38.40625 2.59375 
L 35.40625 2.59375 
C 26.796875 2.59375 26.59375 3.6875 26.59375 7.296875 
z
" id="CMR17-49"/>
        <path d="M 35.203125 29.234375 
C 35.203125 7 26.09375 0.390625 18.59375 0.390625 
C 16.296875 0.390625 10.703125 0.671875 8.40625 4.390625 
C 11 4 12.90625 5.390625 12.90625 7.890625 
C 12.90625 10.59375 10.703125 11.5 9.296875 11.5 
C 8.40625 11.5 5.703125 11.09375 5.703125 7.6875 
C 5.703125 1.0625 11.59375 -2 18.796875 -2 
C 30.296875 -2 42 10.390625 42 32.65625 
C 42 60.265625 30.796875 66 23.203125 66 
C 13.296875 66 3.796875 57.25 3.796875 43.75 
C 3.796875 31.25 11.90625 22 22.09375 22 
C 30.5 22 34.203125 29.84375 35.203125 33.15625 
z
M 22.296875 23.59375 
C 19.59375 23.59375 15.796875 24.09375 12.703125 30.140625 
C 10.59375 34.078125 10.59375 38.703125 10.59375 43.640625 
C 10.59375 49.59375 10.59375 53.71875 13.40625 58.15625 
C 14.796875 60.265625 17.40625 63.6875 23.203125 63.6875 
C 35 63.6875 35 45.453125 35 41.421875 
C 35 34.265625 31.796875 23.59375 22.296875 23.59375 
z
" id="CMR17-57"/>
        <path d="M 11.40625 58.59375 
C 12.40625 58.1875 16.5 56.890625 20.703125 56.890625 
C 30 56.890625 35.09375 61.890625 38 64.6875 
C 38 65.484375 38 66 37.40625 66 
C 37.296875 66 37.09375 66 36.296875 65.59375 
C 32.796875 64.09375 28.703125 63 23.703125 63 
C 20.703125 63 16.203125 63.359375 11.296875 65.484375 
C 10.203125 66 10 66 9.90625 66 
C 9.40625 66 9.296875 65.890625 9.296875 63.90625 
L 9.296875 34.859375 
C 9.296875 33.015625 9.296875 32.5 10.296875 32.5 
C 10.796875 32.5 11 32.703125 11.5 33.421875 
C 14.703125 38.046875 19.09375 40 24.09375 40 
C 27.59375 40 35.09375 37.734375 35.09375 20.203125 
C 35.09375 16.984375 35.09375 11.1875 32.09375 6.59375 
C 29.59375 2.484375 25.703125 0.390625 21.40625 0.390625 
C 14.796875 0.390625 8.09375 4.984375 6.296875 12.6875 
C 6.703125 12.59375 7.5 12.390625 7.90625 12.390625 
C 9.203125 12.390625 11.703125 13.09375 11.703125 16.1875 
C 11.703125 18.890625 9.796875 20 7.90625 20 
C 5.59375 20 4.09375 18.59375 4.09375 15.796875 
C 4.09375 7.09375 11 -2 21.59375 -2 
C 31.90625 -2 41.703125 6.890625 41.703125 19.796875 
C 41.703125 32.09375 33.90625 41.59375 24.203125 41.59375 
C 19.09375 41.59375 14.796875 39.6875 11.40625 36 
z
" id="CMR17-53"/>
       </defs>
       <use transform="scale(0.996264)" xlink:href="#CMR17-49"/>
       <use transform="translate(45.690477 0)scale(0.996264)" xlink:href="#CMR17-57"/>
       <use transform="translate(91.380954 0)scale(0.996264)" xlink:href="#CMR17-57"/>
       <use transform="translate(137.071431 0)scale(0.996264)" xlink:href="#CMR17-53"/>
      </g>
     </g>
    </g>
    <g id="xtick_2">
     <g id="line2d_2">
      <path clip-path="url(#p56469965e0)" d="M 81.434809 134.138818 
L 81.434809 45.145274 
" style="fill:none;stroke:#cccccc;stroke-linecap:round;stroke-width:0.8;"/>
     </g>
     <g id="text_2">
      <!-- $\mathdefault{2000}$ -->
      <g style="fill:#262626;" transform="translate(72.617137 146.90192)scale(0.0833 -0.0833)">
       <defs>
        <path d="M 41.703125 15.46875 
L 39.90625 15.46875 
C 38.90625 8.390625 38.09375 7.1875 37.703125 6.59375 
C 37.203125 5.796875 30 5.796875 28.59375 5.796875 
L 9.40625 5.796875 
C 13 9.6875 20 16.765625 28.5 24.9375 
C 34.59375 30.71875 41.703125 37.5 41.703125 47.390625 
C 41.703125 59.1875 32.296875 66 21.796875 66 
C 10.796875 66 4.09375 56.296875 4.09375 47.296875 
C 4.09375 43.390625 7 42.890625 8.203125 42.890625 
C 9.203125 42.890625 12.203125 43.484375 12.203125 46.984375 
C 12.203125 50.09375 9.59375 51 8.203125 51 
C 7.59375 51 7 50.890625 6.59375 50.6875 
C 8.5 59.1875 14.296875 63.390625 20.40625 63.390625 
C 29.09375 63.390625 34.796875 56.5 34.796875 47.390625 
C 34.796875 38.703125 29.703125 31.21875 24 24.734375 
L 4.09375 2.296875 
L 4.09375 0 
L 39.296875 0 
z
" id="CMR17-50"/>
        <path d="M 42 31.84375 
C 42 37.96875 41.90625 48.421875 37.703125 56.453125 
C 34 63.484375 28.09375 66 22.90625 66 
C 18.09375 66 12 63.78125 8.203125 56.5625 
C 4.203125 49.015625 3.796875 39.671875 3.796875 31.84375 
C 3.796875 26.109375 3.90625 17.375 7 9.734375 
C 11.296875 -0.609375 19 -2 22.90625 -2 
C 27.5 -2 34.5 -0.109375 38.59375 9.4375 
C 41.59375 16.375 42 24.5 42 31.84375 
z
M 22.90625 -0.40625 
C 16.5 -0.40625 12.703125 5.125 11.296875 12.75 
C 10.203125 18.6875 10.203125 27.328125 10.203125 32.953125 
C 10.203125 40.6875 10.203125 47.109375 11.5 53.234375 
C 13.40625 61.78125 19 64.390625 22.90625 64.390625 
C 27 64.390625 32.296875 61.671875 34.203125 53.4375 
C 35.5 47.71875 35.59375 40.984375 35.59375 32.953125 
C 35.59375 26.421875 35.59375 18.375 34.40625 12.453125 
C 32.296875 1.5 26.40625 -0.40625 22.90625 -0.40625 
z
" id="CMR17-48"/>
       </defs>
       <use transform="scale(0.996264)" xlink:href="#CMR17-50"/>
       <use transform="translate(45.690477 0)scale(0.996264)" xlink:href="#CMR17-48"/>
       <use transform="translate(91.380954 0)scale(0.996264)" xlink:href="#CMR17-48"/>
       <use transform="translate(137.071431 0)scale(0.996264)" xlink:href="#CMR17-48"/>
      </g>
     </g>
    </g>
    <g id="xtick_3">
     <g id="line2d_3">
      <path clip-path="url(#p56469965e0)" d="M 119.20231 134.138818 
L 119.20231 45.145274 
" style="fill:none;stroke:#cccccc;stroke-linecap:round;stroke-width:0.8;"/>
     </g>
     <g id="text_3">
      <!-- $\mathdefault{2005}$ -->
      <g style="fill:#262626;" transform="translate(110.384637 146.90192)scale(0.0833 -0.0833)">
       <use transform="scale(0.996264)" xlink:href="#CMR17-50"/>
       <use transform="translate(45.690477 0)scale(0.996264)" xlink:href="#CMR17-48"/>
       <use transform="translate(91.380954 0)scale(0.996264)" xlink:href="#CMR17-48"/>
       <use transform="translate(137.071431 0)scale(0.996264)" xlink:href="#CMR17-53"/>
      </g>
     </g>
    </g>
    <g id="xtick_4">
     <g id="line2d_4">
      <path clip-path="url(#p56469965e0)" d="M 156.96981 134.138818 
L 156.96981 45.145274 
" style="fill:none;stroke:#cccccc;stroke-linecap:round;stroke-width:0.8;"/>
     </g>
     <g id="text_4">
      <!-- $\mathdefault{2010}$ -->
      <g style="fill:#262626;" transform="translate(148.152138 146.90192)scale(0.0833 -0.0833)">
       <use transform="scale(0.996264)" xlink:href="#CMR17-50"/>
       <use transform="translate(45.690477 0)scale(0.996264)" xlink:href="#CMR17-48"/>
       <use transform="translate(91.380954 0)scale(0.996264)" xlink:href="#CMR17-49"/>
       <use transform="translate(137.071431 0)scale(0.996264)" xlink:href="#CMR17-48"/>
      </g>
     </g>
    </g>
    <g id="xtick_5">
     <g id="line2d_5">
      <path clip-path="url(#p56469965e0)" d="M 194.737311 134.138818 
L 194.737311 45.145274 
" style="fill:none;stroke:#cccccc;stroke-linecap:round;stroke-width:0.8;"/>
     </g>
     <g id="text_5">
      <!-- $\mathdefault{2015}$ -->
      <g style="fill:#262626;" transform="translate(185.919639 146.90192)scale(0.0833 -0.0833)">
       <use transform="scale(0.996264)" xlink:href="#CMR17-50"/>
       <use transform="translate(45.690477 0)scale(0.996264)" xlink:href="#CMR17-48"/>
       <use transform="translate(91.380954 0)scale(0.996264)" xlink:href="#CMR17-49"/>
       <use transform="translate(137.071431 0)scale(0.996264)" xlink:href="#CMR17-53"/>
      </g>
     </g>
    </g>
    <g id="xtick_6">
     <g id="line2d_6">
      <path clip-path="url(#p56469965e0)" d="M 232.504812 134.138818 
L 232.504812 45.145274 
" style="fill:none;stroke:#cccccc;stroke-linecap:round;stroke-width:0.8;"/>
     </g>
     <g id="text_6">
      <!-- $\mathdefault{2020}$ -->
      <g style="fill:#262626;" transform="translate(223.68714 146.90192)scale(0.0833 -0.0833)">
       <use transform="scale(0.996264)" xlink:href="#CMR17-50"/>
       <use transform="translate(45.690477 0)scale(0.996264)" xlink:href="#CMR17-48"/>
       <use transform="translate(91.380954 0)scale(0.996264)" xlink:href="#CMR17-50"/>
       <use transform="translate(137.071431 0)scale(0.996264)" xlink:href="#CMR17-48"/>
      </g>
     </g>
    </g>
   </g>
   <g id="matplotlib.axis_2">
    <g id="ytick_1">
     <g id="line2d_7">
      <path clip-path="url(#p56469965e0)" d="M 43.667308 134.138818 
L 232.504812 134.138818 
" style="fill:none;stroke:#cccccc;stroke-linecap:round;stroke-width:0.8;"/>
     </g>
     <g id="text_7">
      <!-- $\mathdefault{0.0}$ -->
      <g style="fill:#262626;" transform="translate(25.400279 137.020369)scale(0.0833 -0.0833)">
       <defs>
        <path d="M 18.40625 4.796875 
C 18.40625 7.6875 16 9.6875 13.59375 9.6875 
C 10.703125 9.6875 8.703125 7.296875 8.703125 4.890625 
C 8.703125 2 11.09375 0 13.5 0 
C 16.40625 0 18.40625 2.390625 18.40625 4.796875 
z
" id="CMMI12-58"/>
       </defs>
       <use transform="scale(0.996264)" xlink:href="#CMR17-48"/>
       <use transform="translate(45.690477 0)scale(0.996264)" xlink:href="#CMMI12-58"/>
       <use transform="translate(72.787654 0)scale(0.996264)" xlink:href="#CMR17-48"/>
      </g>
     </g>
    </g>
    <g id="ytick_2">
     <g id="line2d_8">
      <path clip-path="url(#p56469965e0)" d="M 43.667308 116.340109 
L 232.504812 116.340109 
" style="fill:none;stroke:#cccccc;stroke-linecap:round;stroke-width:0.8;"/>
     </g>
     <g id="text_8">
      <!-- $\mathdefault{0.2}$ -->
      <g style="fill:#262626;" transform="translate(25.400279 119.22166)scale(0.0833 -0.0833)">
       <use transform="scale(0.996264)" xlink:href="#CMR17-48"/>
       <use transform="translate(45.690477 0)scale(0.996264)" xlink:href="#CMMI12-58"/>
       <use transform="translate(72.787654 0)scale(0.996264)" xlink:href="#CMR17-50"/>
      </g>
     </g>
    </g>
    <g id="ytick_3">
     <g id="line2d_9">
      <path clip-path="url(#p56469965e0)" d="M 43.667308 98.5414 
L 232.504812 98.5414 
" style="fill:none;stroke:#cccccc;stroke-linecap:round;stroke-width:0.8;"/>
     </g>
     <g id="text_9">
      <!-- $\mathdefault{0.4}$ -->
      <g style="fill:#262626;" transform="translate(25.400279 101.422951)scale(0.0833 -0.0833)">
       <defs>
        <path d="M 33.59375 64.796875 
C 33.59375 66.890625 33.5 67 31.703125 67 
L 2 19.59375 
L 2 17 
L 27.796875 17 
L 27.796875 7.1875 
C 27.796875 3.59375 27.59375 2.59375 20.59375 2.59375 
L 18.703125 2.59375 
L 18.703125 0 
C 21.90625 0.1875 27.296875 0.1875 30.703125 0.1875 
C 34.09375 0.1875 39.5 0.1875 42.703125 0 
L 42.703125 2.59375 
L 40.796875 2.59375 
C 33.796875 2.59375 33.59375 3.59375 33.59375 7.1875 
L 33.59375 17 
L 43.796875 17 
L 43.796875 19.59375 
L 33.59375 19.59375 
z
M 28.09375 58.171875 
L 28.09375 19.59375 
L 4 19.59375 
z
" id="CMR17-52"/>
       </defs>
       <use transform="scale(0.996264)" xlink:href="#CMR17-48"/>
       <use transform="translate(45.690477 0)scale(0.996264)" xlink:href="#CMMI12-58"/>
       <use transform="translate(72.787654 0)scale(0.996264)" xlink:href="#CMR17-52"/>
      </g>
     </g>
    </g>
    <g id="ytick_4">
     <g id="line2d_10">
      <path clip-path="url(#p56469965e0)" d="M 43.667308 80.742692 
L 232.504812 80.742692 
" style="fill:none;stroke:#cccccc;stroke-linecap:round;stroke-width:0.8;"/>
     </g>
     <g id="text_10">
      <!-- $\mathdefault{0.6}$ -->
      <g style="fill:#262626;" transform="translate(25.400279 83.624243)scale(0.0833 -0.0833)">
       <defs>
        <path d="M 10.59375 34.34375 
C 10.59375 58 21.796875 63.6875 28.296875 63.6875 
C 30.40625 63.6875 35.5 63.265625 37.5 59.09375 
C 35.90625 59.09375 32.90625 59.09375 32.90625 55.59375 
C 32.90625 52.890625 35.09375 52 36.5 52 
C 37.40625 52 40.09375 52.390625 40.09375 55.796875 
C 40.09375 62.296875 35.09375 66 28.203125 66 
C 16.296875 66 3.796875 53.296875 3.796875 31.421875 
C 3.796875 4.015625 15.09375 -2 23.09375 -2 
C 32.796875 -2 42 6.734375 42 20.234375 
C 42 32.828125 33.90625 42 23.703125 42 
C 17.59375 42 13.09375 37.96875 10.59375 30.921875 
z
M 23.09375 0.390625 
C 10.796875 0.390625 10.796875 18.9375 10.796875 22.65625 
C 10.796875 29.90625 14.203125 40.390625 23.5 40.390625 
C 25.203125 40.390625 30.09375 40.390625 33.40625 33.4375 
C 35.203125 29.515625 35.203125 25.375 35.203125 20.34375 
C 35.203125 14.90625 35.203125 10.875 33.09375 6.84375 
C 30.90625 2.703125 27.703125 0.390625 23.09375 0.390625 
z
" id="CMR17-54"/>
       </defs>
       <use transform="scale(0.996264)" xlink:href="#CMR17-48"/>
       <use transform="translate(45.690477 0)scale(0.996264)" xlink:href="#CMMI12-58"/>
       <use transform="translate(72.787654 0)scale(0.996264)" xlink:href="#CMR17-54"/>
      </g>
     </g>
    </g>
    <g id="ytick_5">
     <g id="line2d_11">
      <path clip-path="url(#p56469965e0)" d="M 43.667308 62.943983 
L 232.504812 62.943983 
" style="fill:none;stroke:#cccccc;stroke-linecap:round;stroke-width:0.8;"/>
     </g>
     <g id="text_11">
      <!-- $\mathdefault{0.8}$ -->
      <g style="fill:#262626;" transform="translate(25.400279 65.825534)scale(0.0833 -0.0833)">
       <defs>
        <path d="M 27.203125 35.765625 
C 33.5 38.96875 39.90625 43.796875 39.90625 51.53125 
C 39.90625 60.6875 31.09375 66 23 66 
C 13.90625 66 5.90625 59.375 5.90625 50.234375 
C 5.90625 47.71875 6.5 43.390625 10.40625 39.578125 
C 11.40625 38.578125 15.59375 35.5625 18.296875 33.65625 
C 13.796875 31.34375 3.296875 25.8125 3.296875 14.765625 
C 3.296875 4.40625 13.09375 -2 22.796875 -2 
C 33.5 -2 42.5 5.71875 42.5 15.96875 
C 42.5 25.109375 36.40625 29.328125 32.40625 32.046875 
z
M 14.09375 44.609375 
C 13.296875 45.109375 9.296875 48.21875 9.296875 52.9375 
C 9.296875 59.078125 15.59375 63.6875 22.796875 63.6875 
C 30.703125 63.6875 36.5 58.0625 36.5 51.53125 
C 36.5 42.1875 26.09375 36.859375 25.59375 36.859375 
C 25.5 36.859375 25.40625 36.859375 24.59375 37.46875 
z
M 32.5 24 
C 34 22.90625 38.796875 19.578125 38.796875 13.453125 
C 38.796875 6.015625 31.40625 0.390625 23 0.390625 
C 13.90625 0.390625 7 6.921875 7 14.859375 
C 7 22.796875 13.09375 29.4375 20 32.546875 
z
" id="CMR17-56"/>
       </defs>
       <use transform="scale(0.996264)" xlink:href="#CMR17-48"/>
       <use transform="translate(45.690477 0)scale(0.996264)" xlink:href="#CMMI12-58"/>
       <use transform="translate(72.787654 0)scale(0.996264)" xlink:href="#CMR17-56"/>
      </g>
     </g>
    </g>
    <g id="ytick_6">
     <g id="line2d_12">
      <path clip-path="url(#p56469965e0)" d="M 43.667308 45.145274 
L 232.504812 45.145274 
" style="fill:none;stroke:#cccccc;stroke-linecap:round;stroke-width:0.8;"/>
     </g>
     <g id="text_12">
      <!-- $\mathdefault{1.0}$ -->
      <g style="fill:#262626;" transform="translate(25.400279 48.026825)scale(0.0833 -0.0833)">
       <use transform="scale(0.996264)" xlink:href="#CMR17-49"/>
       <use transform="translate(45.690477 0)scale(0.996264)" xlink:href="#CMMI12-58"/>
       <use transform="translate(72.787654 0)scale(0.996264)" xlink:href="#CMR17-48"/>
      </g>
     </g>
    </g>
    <g id="text_13">
     <!-- Deaths [$\times 10^3$] -->
     <g style="fill:#262626;" transform="translate(18.909619 120.339499)rotate(-90)scale(0.1 -0.1)">
      <defs>
       <path d="M 5.203125 68 
L 5.203125 65.390625 
C 12.09375 65.390625 13.203125 65.390625 13.203125 60.90625 
L 13.203125 7.078125 
C 13.203125 2.59375 12.09375 2.59375 5.203125 2.59375 
L 5.203125 0 
L 37 0 
C 53.09375 0 66 14.734375 66 33.4375 
C 66 52.25 53.296875 68 37 68 
z
M 23.796875 2.59375 
C 19.796875 2.59375 19.59375 3.09375 19.59375 6.46875 
L 19.59375 61.5 
C 19.59375 64.890625 19.796875 65.390625 23.796875 65.390625 
L 35 65.390625 
C 43.296875 65.390625 58.59375 60.515625 58.59375 33.4375 
C 58.59375 19.40625 54.5 13.734375 52.59375 11.046875 
C 50.203125 7.96875 44.5 2.59375 35 2.59375 
z
" id="CMR17-68"/>
       <path d="M 38.09375 23.484375 
C 38.5 23.890625 38.5 24.09375 38.5 25.09375 
C 38.5 35.171875 33.09375 44 21.703125 44 
C 11.09375 44 2.703125 33.984375 2.703125 21.78125 
C 2.703125 8.65625 12.203125 -1 22.796875 -1 
C 34 -1 38.40625 9.671875 38.40625 11.796875 
C 38.40625 12.5 37.796875 12.5 37.59375 12.5 
C 36.90625 12.5 36.796875 12.296875 36.40625 11.078125 
C 34.203125 4.21875 28.703125 0.796875 23.5 0.796875 
C 19.203125 0.796875 14.90625 3.21875 12.203125 7.65625 
C 9.09375 12.796875 9.09375 18.75 9.09375 23.484375 
z
M 9.203125 25 
C 9.90625 39.234375 17.59375 42.390625 21.59375 42.390625 
C 28.40625 42.390625 33 36.0625 33.09375 25 
z
" id="CMR17-101"/>
       <path d="M 36 25.875 
C 36 32 36 35.546875 31.796875 39.59375 
C 28.09375 42.984375 23.796875 44 20.40625 44 
C 12.5 44 6.796875 37.625 6.796875 30.890625 
C 6.796875 27.1875 9.796875 27 10.40625 27 
C 11.703125 27 14 27.796875 14 30.59375 
C 14 33.09375 12.09375 34.1875 10.40625 34.1875 
C 10 34.1875 9.5 34.09375 9.203125 34 
C 11.296875 40.53125 16.703125 42.390625 20.203125 42.390625 
C 25.203125 42.390625 30.703125 37.828125 30.703125 29.296875 
L 30.703125 25.5 
C 24.796875 25.296875 17.703125 24.5 12.09375 21.453125 
C 5.796875 17.921875 4 12.84375 4 9 
C 4 1.203125 13 -1 18.296875 -1 
C 23.796875 -1 28.90625 2.109375 31.09375 7.890625 
C 31.296875 3.421875 34.09375 -0.609375 38.5 -0.609375 
C 40.59375 -0.609375 45.90625 0.796875 45.90625 8.796875 
L 45.90625 14.46875 
L 44.09375 14.46875 
L 44.09375 8.703125 
C 44.09375 2.515625 41.40625 1.703125 40.09375 1.703125 
C 36 1.703125 36 6.96875 36 11.4375 
z
M 30.703125 13.859375 
C 30.703125 5.046875 24.5 0.59375 19 0.59375 
C 14 0.59375 10.09375 4.34375 10.09375 9 
C 10.09375 12.046875 11.40625 17.40625 17.203125 20.65625 
C 22 23.390625 27.5 23.796875 30.703125 24 
z
" id="CMR17-97"/>
       <path d="M 15.09375 40.390625 
L 29.09375 40.390625 
L 29.09375 43 
L 15.09375 43 
L 15.09375 62 
L 13.296875 62 
C 13.09375 51.4375 9.59375 42.1875 1.09375 41.984375 
L 1.09375 40.390625 
L 9.796875 40.390625 
L 9.796875 12.15625 
C 9.796875 10.234375 9.796875 -1 21.40625 -1 
C 27.296875 -1 30.703125 4.8125 30.703125 12.25 
L 30.703125 17.984375 
L 28.90625 17.984375 
L 28.90625 12.34375 
C 28.90625 5.421875 26.203125 0.796875 22 0.796875 
C 19.09375 0.796875 15.09375 2.796875 15.09375 11.953125 
z
" id="CMR17-116"/>
       <path d="M 41.5 30.53125 
C 41.5 35.65625 40.5 44 28.703125 44 
C 20.5 44 16.5 37.375 15.296875 34.046875 
L 15.203125 34.046875 
L 15.203125 69 
L 3.296875 67.890625 
L 3.296875 65.296875 
C 9.203125 65.296875 10.09375 64.703125 10.09375 60.046875 
L 10.09375 6.921875 
C 10.09375 3.09375 9.703125 2.59375 3.296875 2.59375 
L 3.296875 0 
C 5.703125 0.1875 10.09375 0.1875 12.703125 0.1875 
C 15.296875 0.1875 19.796875 0.1875 22.203125 0 
L 22.203125 2.59375 
C 15.796875 2.59375 15.40625 3 15.40625 6.921875 
L 15.40625 26.21875 
C 15.40625 35.453125 21 42.390625 28 42.390625 
C 35.40625 42.390625 36.203125 35.765625 36.203125 30.9375 
L 36.203125 6.921875 
C 36.203125 3.09375 35.796875 2.59375 29.40625 2.59375 
L 29.40625 0 
C 31.796875 0.1875 36.203125 0.1875 38.796875 0.1875 
C 41.40625 0.1875 45.90625 0.1875 48.296875 0 
L 48.296875 2.59375 
C 41.90625 2.59375 41.5 3 41.5 6.921875 
z
" id="CMR17-104"/>
       <path d="M 30.90625 42 
C 30.90625 43.796875 30.796875 43.890625 30.203125 43.890625 
C 29.796875 43.890625 29.703125 43.796875 28.5 42.296875 
C 28.203125 41.890625 27.296875 40.890625 27 40.5 
C 23.796875 43.890625 19.296875 44 17.59375 44 
C 6.5 44 2.5 38.1875 2.5 32.390625 
C 2.5 23.390625 12.703125 21.296875 15.59375 20.6875 
C 21.90625 19.390625 24.09375 19 26.203125 17.1875 
C 27.5 16 29.703125 13.796875 29.703125 10.1875 
C 29.703125 6 27.296875 0.59375 18.09375 0.59375 
C 9.40625 0.59375 6.296875 7.1875 4.5 16 
C 4.203125 17.390625 4.203125 17.5 3.40625 17.5 
C 2.59375 17.5 2.5 17.390625 2.5 15.390625 
L 2.5 1 
C 2.5 -0.8125 2.59375 -0.90625 3.203125 -0.90625 
C 3.703125 -0.90625 3.796875 -0.8125 4.296875 0 
C 4.90625 0.890625 6.40625 3.296875 7 4.296875 
C 9 1.59375 12.5 -1 18.09375 -1 
C 28 -1 33.296875 4.390625 33.296875 12.1875 
C 33.296875 17.296875 30.59375 20 29.296875 21.1875 
C 26.296875 24.296875 22.796875 25 18.59375 25.796875 
C 13.09375 27 6.09375 28.390625 6.09375 34.5 
C 6.09375 37.09375 7.5 42.59375 17.59375 42.59375 
C 28.296875 42.59375 28.90625 32.59375 29.09375 29.390625 
C 29.203125 28.890625 29.703125 28.796875 30 28.796875 
C 30.90625 28.796875 30.90625 29.09375 30.90625 30.796875 
z
" id="CMR17-115"/>
       <path d="M 23.5 -25 
L 23.5 -21.5 
L 14.09375 -21.5 
L 14.09375 71.484375 
L 23.5 71.484375 
L 23.5 75 
L 10.59375 75 
L 10.59375 -25 
z
" id="CMR17-91"/>
       <path d="M 38.90625 27.734375 
L 18.90625 47.59375 
C 17.703125 48.796875 17.5 49 16.703125 49 
C 15.703125 49 14.703125 48.09375 14.703125 47 
C 14.703125 46.296875 14.90625 46.09375 16 45 
L 36 24.9375 
L 16 4.890625 
C 14.90625 3.796875 14.703125 3.59375 14.703125 2.890625 
C 14.703125 1.796875 15.703125 0.890625 16.703125 0.890625 
C 17.5 0.890625 17.703125 1.09375 18.90625 2.296875 
L 38.796875 22.15625 
L 59.5 1.484375 
C 59.703125 1.390625 60.40625 0.890625 61 0.890625 
C 62.203125 0.890625 63 1.796875 63 2.890625 
C 63 3.09375 63 3.484375 62.703125 3.984375 
C 62.59375 4.1875 46.703125 19.859375 41.703125 24.9375 
L 60 43.203125 
C 60.5 43.796875 62 45.09375 62.5 45.703125 
C 62.59375 45.890625 63 46.296875 63 47 
C 63 48.09375 62.203125 49 61 49 
C 60.203125 49 59.796875 48.59375 58.703125 47.5 
z
" id="CMSY10-2"/>
       <path d="M 22.09375 34 
C 31 34 34.90625 26.140625 34.90625 17.09375 
C 34.90625 5.03125 28.5 0.390625 22.703125 0.390625 
C 17.40625 0.390625 8.796875 3.015625 6.09375 10.796875 
C 6.59375 10.59375 7.09375 10.59375 7.59375 10.59375 
C 10 10.59375 11.796875 12.1875 11.796875 14.796875 
C 11.796875 17.6875 9.59375 19 7.59375 19 
C 5.90625 19 3.296875 18.1875 3.296875 14.484375 
C 3.296875 5.234375 12.296875 -2 22.90625 -2 
C 34 -2 42.5 6.75 42.5 16.984375 
C 42.5 26.84375 34.5 34 25 35.09375 
C 32.59375 36.671875 39.90625 43.375 39.90625 52.390625 
C 39.90625 60.25 32 66 23 66 
C 13.90625 66 5.90625 60.34375 5.90625 52.296875 
C 5.90625 48.796875 8.5 48.1875 9.796875 48.1875 
C 11.90625 48.1875 13.703125 49.484375 13.703125 52.09375 
C 13.703125 54.6875 11.90625 56 9.796875 56 
C 9.40625 56 8.90625 56 8.5 55.796875 
C 11.40625 62.484375 19.296875 63.6875 22.796875 63.6875 
C 26.296875 63.6875 32.90625 61.96875 32.90625 52.296875 
C 32.90625 49.484375 32.5 44.546875 29.09375 40.21875 
C 26.09375 36.390625 22.703125 36.1875 19.40625 35.890625 
C 18.90625 35.890625 16.59375 35.6875 16.203125 35.6875 
C 15.5 35.59375 15.09375 35.5 15.09375 34.796875 
C 15.09375 34.09375 15.203125 34 17.203125 34 
z
" id="CMR17-51"/>
       <path d="M 14.296875 75 
L 1.40625 75 
L 1.40625 71.484375 
L 10.796875 71.484375 
L 10.796875 -21.5 
L 1.40625 -21.5 
L 1.40625 -25 
L 14.296875 -25 
z
" id="CMR17-93"/>
      </defs>
      <use transform="scale(0.996264)" xlink:href="#CMR17-68"/>
      <use transform="translate(70.393556 0)scale(0.996264)" xlink:href="#CMR17-101"/>
      <use transform="translate(110.879216 0)scale(0.996264)" xlink:href="#CMR17-97"/>
      <use transform="translate(156.569693 0)scale(0.996264)" xlink:href="#CMR17-116"/>
      <use transform="translate(191.850461 0)scale(0.996264)" xlink:href="#CMR17-104"/>
      <use transform="translate(242.745831 0)scale(0.996264)" xlink:href="#CMR17-115"/>
      <use transform="translate(308.623135 0)scale(0.996264)" xlink:href="#CMR17-91"/>
      <use transform="translate(333.494194 0)scale(0.996264)" xlink:href="#CMSY10-2"/>
      <use transform="translate(410.981661 0)scale(0.996264)" xlink:href="#CMR17-49"/>
      <use transform="translate(456.672138 0)scale(0.996264)" xlink:href="#CMR17-48"/>
      <use transform="translate(502.362615 36.153639)scale(0.697382)" xlink:href="#CMR17-51"/>
      <use transform="translate(534.843929 0)scale(0.996264)" xlink:href="#CMR17-93"/>
     </g>
    </g>
   </g>
   <g id="line2d_13">
    <path clip-path="url(#p56469965e0)" d="M 73.881309 134.138818 
L 81.434809 134.138818 
L 88.988309 134.138818 
L 96.541809 134.138818 
L 104.095309 134.138818 
L 111.648809 134.138818 
L 119.20231 134.138818 
L 126.75581 134.138818 
L 134.30931 134.138818 
L 141.86281 134.138818 
L 149.41631 134.138818 
L 156.96981 134.138818 
L 164.523311 134.138818 
L 172.076811 134.138818 
L 179.630311 131.824986 
L 187.183811 131.291025 
L 194.737311 127.108328 
L 202.290812 120.87878 
L 209.844312 105.037929 
L 217.397812 94.892665 
L 224.951312 83.056524 
L 232.504812 63.655931 
" style="fill:none;stroke:#000000;stroke-linecap:round;stroke-opacity:0.8;stroke-width:1.5;"/>
   </g>
   <g id="line2d_14">
    <path clip-path="url(#p56469965e0)" d="M 73.881309 134.138818 
L 81.434809 134.138818 
L 88.988309 134.138818 
L 96.541809 134.138818 
L 104.095309 134.138818 
L 111.648809 134.138818 
L 119.20231 134.138818 
L 126.75581 134.138818 
L 134.30931 134.138818 
L 141.86281 134.138818 
L 149.41631 134.138818 
L 156.96981 134.138818 
L 164.523311 134.138818 
L 172.076811 134.138818 
L 179.630311 131.824986 
L 187.183811 131.291025 
L 194.737311 129.066186 
L 202.290812 125.239464 
L 209.844312 113.759296 
L 217.397812 108.419684 
L 224.951312 100.588252 
L 232.504812 83.590485 
" style="fill:none;stroke:#a9a9a9;stroke-dasharray:7.5,1.5;stroke-dashoffset:0;stroke-opacity:0.8;stroke-width:1.5;"/>
   </g>
   <g id="line2d_15">
    <path clip-path="url(#p56469965e0)" d="M 73.881309 134.138818 
L 81.434809 134.138818 
L 88.988309 134.138818 
L 96.541809 134.138818 
L 104.095309 134.138818 
L 111.648809 134.138818 
L 119.20231 134.138818 
L 126.75581 134.138818 
L 134.30931 134.138818 
L 141.86281 134.138818 
L 149.41631 134.138818 
L 156.96981 134.138818 
L 164.523311 134.138818 
L 172.076811 134.138818 
L 179.630311 134.138818 
L 187.183811 134.138818 
L 194.737311 132.18096 
L 202.290812 129.778134 
L 209.844312 125.417451 
L 217.397812 120.611799 
L 224.951312 116.60709 
L 232.504812 114.204264 
" style="fill:none;stroke:#708090;stroke-dasharray:4.5,1.5,1.5,1.5;stroke-dashoffset:0;stroke-opacity:0.8;stroke-width:1.5;"/>
   </g>
   <g id="patch_3">
    <path d="M 43.667308 134.138818 
L 43.667308 45.145274 
" style="fill:none;stroke:#cccccc;stroke-linecap:square;stroke-linejoin:miter;stroke-width:0.8;"/>
   </g>
   <g id="patch_4">
    <path d="M 232.504812 134.138818 
L 232.504812 45.145274 
" style="fill:none;stroke:#cccccc;stroke-linecap:square;stroke-linejoin:miter;stroke-width:0.8;"/>
   </g>
   <g id="patch_5">
    <path d="M 43.667308 134.138818 
L 232.504812 134.138818 
" style="fill:none;stroke:#cccccc;stroke-linecap:square;stroke-linejoin:miter;stroke-width:0.8;"/>
   </g>
   <g id="patch_6">
    <path d="M 43.667308 45.145274 
L 232.504812 45.145274 
" style="fill:none;stroke:#cccccc;stroke-linecap:square;stroke-linejoin:miter;stroke-width:0.8;"/>
   </g>
   <g id="text_14">
    <!-- Psychostimulants with abuse potential -->
    <g style="fill:#262626;" transform="translate(54.053792 39.145274)scale(0.1 -0.1)">
     <defs>
      <path d="M 19.796875 32 
L 35.796875 32 
C 48.703125 32 58.09375 40.359375 58.09375 49.796875 
C 58.09375 59.234375 48.90625 68 35.796875 68 
L 5.203125 68 
L 5.203125 65.390625 
C 12.09375 65.390625 13.203125 65.390625 13.203125 60.921875 
L 13.203125 7.078125 
C 13.203125 2.59375 12.09375 2.59375 5.203125 2.59375 
L 5.203125 0 
C 8.09375 0.1875 13.40625 0.1875 16.5 0.1875 
C 19.59375 0.1875 24.90625 0.1875 27.796875 0 
L 27.796875 2.59375 
C 20.90625 2.59375 19.796875 2.59375 19.796875 7.078125 
z
M 19.59375 34.09375 
L 19.59375 61.515625 
C 19.59375 64.890625 19.796875 65.390625 23.796875 65.390625 
L 33.90625 65.390625 
C 46.796875 65.390625 50.5 58.046875 50.5 49.796875 
C 50.5 40.75 46.09375 34.09375 33.90625 34.09375 
z
" id="CMR17-80"/>
      <path d="M 39 34.109375 
C 41.5 40.296875 46 40.390625 47.40625 40.390625 
L 47.40625 43 
C 45.5 42.890625 43 42.796875 41.09375 42.796875 
C 39 42.796875 35.703125 42.796875 33.703125 43 
L 33.703125 40.390625 
C 37.5 40.09375 37.59375 37.25 37.59375 36.4375 
C 37.59375 35.4375 37.40625 34.921875 36.90625 33.71875 
L 26 6.390625 
L 14.09375 35.9375 
C 13.59375 37.15625 13.59375 37.859375 13.59375 37.96875 
C 13.59375 40.1875 15.90625 40.390625 18.296875 40.390625 
L 18.296875 43 
C 15.90625 42.796875 11.59375 42.796875 9.09375 42.796875 
C 6.40625 42.796875 3.203125 42.796875 1 43 
L 1 40.390625 
C 6.40625 40.390625 7 39.890625 8.296875 36.640625 
L 23.203125 -0.484375 
C 18.703125 -12.421875 16.09375 -19.40625 9.796875 -19.40625 
C 8.703125 -19.40625 6.203125 -19.109375 4.40625 -17.28125 
C 6.703125 -17.078125 7.703125 -15.65625 7.703125 -13.9375 
C 7.703125 -12.21875 6.5 -10.703125 4.5 -10.703125 
C 2.296875 -10.703125 1.203125 -12.21875 1.203125 -14.046875 
C 1.203125 -18.09375 5.296875 -21 9.796875 -21 
C 15.59375 -21 19.203125 -15.359375 21.203125 -10.296875 
z
" id="CMR17-121"/>
      <path d="M 34.90625 35 
C 33 35 30.203125 35 30.203125 31.484375 
C 30.203125 28.6875 32.5 27.890625 33.796875 27.890625 
C 34.5 27.890625 37.40625 28.1875 37.40625 31.6875 
C 37.40625 38.6875 30.59375 44 22.90625 44 
C 12.296875 44 3.296875 34.390625 3.296875 21.546875 
C 3.296875 8.140625 12.703125 -1 22.90625 -1 
C 35.296875 -1 38.40625 10.5625 38.40625 11.671875 
C 38.40625 12.078125 38.296875 12.375 37.59375 12.375 
C 36.90625 12.375 36.796875 12.28125 36.40625 10.96875 
C 33.796875 2.8125 28.09375 0.796875 23.796875 0.796875 
C 17.40625 0.796875 9.703125 6.734375 9.703125 21.640625 
C 9.703125 36.84375 17.09375 42.1875 23 42.1875 
C 26.90625 42.1875 32.703125 40.34375 34.90625 35 
z
" id="CMR17-99"/>
      <path d="M 43.09375 21.1875 
C 43.09375 34 33.796875 44 22.90625 44 
C 12 44 2.703125 34 2.703125 21.1875 
C 2.703125 8.59375 12 -1 22.90625 -1 
C 33.796875 -1 43.09375 8.59375 43.09375 21.1875 
z
M 22.90625 0.796875 
C 18.203125 0.796875 14.203125 3.59375 11.90625 7.5 
C 9.40625 12 9.09375 17.59375 9.09375 22 
C 9.09375 26.1875 9.296875 31.390625 11.90625 35.890625 
C 13.90625 39.1875 17.796875 42.390625 22.90625 42.390625 
C 27.40625 42.390625 31.203125 39.890625 33.59375 36.390625 
C 36.703125 31.6875 36.703125 25.09375 36.703125 22 
C 36.703125 18.09375 36.5 12.09375 33.796875 7.296875 
C 31 2.6875 26.703125 0.796875 22.90625 0.796875 
z
" id="CMR17-111"/>
      <path d="M 15.5 61.890625 
C 15.5 64.09375 13.703125 66 11.40625 66 
C 9.203125 66 7.296875 64.1875 7.296875 61.890625 
C 7.296875 59.6875 9.09375 57.796875 11.40625 57.796875 
C 13.59375 57.796875 15.5 59.59375 15.5 61.890625 
z
M 3.796875 42.890625 
L 3.796875 40.296875 
C 9.40625 40.296875 10.203125 39.6875 10.203125 34.859375 
L 10.203125 6.921875 
C 10.203125 3.09375 9.796875 2.59375 3.40625 2.59375 
L 3.40625 0 
C 5.796875 0.1875 10.09375 0.1875 12.59375 0.1875 
C 15 0.1875 19.09375 0.1875 21.40625 0 
L 21.40625 2.59375 
C 15.5 2.59375 15.296875 3.203125 15.296875 6.8125 
L 15.296875 44 
z
" id="CMR17-105"/>
      <path d="M 67.59375 30.53125 
C 67.59375 35.5625 66.703125 44 54.796875 44 
C 48 44 43.296875 39.375 41.5 33.953125 
L 41.40625 33.953125 
C 40.203125 42.1875 34.296875 44 28.703125 44 
C 20.796875 44 16.703125 37.875 15.203125 33.84375 
L 15.09375 33.84375 
L 15.09375 44 
L 3.296875 42.890625 
L 3.296875 40.28125 
C 9.203125 40.28125 10.09375 39.6875 10.09375 34.859375 
L 10.09375 6.921875 
C 10.09375 3.09375 9.703125 2.59375 3.296875 2.59375 
L 3.296875 0 
C 5.703125 0.1875 10.09375 0.1875 12.703125 0.1875 
C 15.296875 0.1875 19.796875 0.1875 22.203125 0 
L 22.203125 2.59375 
C 15.796875 2.59375 15.40625 3 15.40625 6.921875 
L 15.40625 26.21875 
C 15.40625 35.453125 21 42.390625 28 42.390625 
C 35.40625 42.390625 36.203125 35.765625 36.203125 30.9375 
L 36.203125 6.921875 
C 36.203125 3.09375 35.796875 2.59375 29.40625 2.59375 
L 29.40625 0 
C 31.796875 0.1875 36.203125 0.1875 38.796875 0.1875 
C 41.40625 0.1875 45.90625 0.1875 48.296875 0 
L 48.296875 2.59375 
C 41.90625 2.59375 41.5 3 41.5 6.921875 
L 41.5 26.21875 
C 41.5 35.453125 47.09375 42.390625 54.09375 42.390625 
C 61.5 42.390625 62.296875 35.765625 62.296875 30.9375 
L 62.296875 6.921875 
C 62.296875 3.09375 61.90625 2.59375 55.5 2.59375 
L 55.5 0 
C 57.90625 0.1875 62.296875 0.1875 64.90625 0.1875 
C 67.5 0.1875 72 0.1875 74.40625 0 
L 74.40625 2.59375 
C 68 2.59375 67.59375 3 67.59375 6.921875 
z
" id="CMR17-109"/>
      <path d="M 29.40625 42.890625 
L 29.40625 40.296875 
C 35.296875 40.296875 36.203125 39.6875 36.203125 34.828125 
L 36.203125 16.453125 
C 36.203125 7.96875 31.703125 0.59375 24.296875 0.59375 
C 16.09375 0.59375 15.40625 5.546875 15.40625 10.796875 
L 15.40625 44 
L 3.296875 42.890625 
L 3.296875 40.296875 
C 7.296875 40.296875 10 40.296875 10.09375 36.25 
L 10.09375 16.859375 
C 10.09375 10.09375 10.09375 5.75 12.703125 2.921875 
C 14 1.609375 16.5 -1 23.703125 -1 
C 32.203125 -1 35.5 6.25 36.296875 8.375 
L 36.40625 8.375 
L 36.40625 -1 
L 48.296875 -0.203125 
L 48.296875 2.40625 
C 42.40625 2.40625 41.5 3.015625 41.5 7.859375 
L 41.5 44 
z
" id="CMR17-117"/>
      <path d="M 15.296875 69 
L 3.40625 67.890625 
L 3.40625 65.296875 
C 9.296875 65.296875 10.203125 64.703125 10.203125 59.921875 
L 10.203125 6.859375 
C 10.203125 3.09375 9.796875 2.59375 3.40625 2.59375 
L 3.40625 0 
C 5.796875 0.1875 10.203125 0.1875 12.703125 0.1875 
C 15.296875 0.1875 19.703125 0.1875 22.09375 0 
L 22.09375 2.59375 
C 15.703125 2.59375 15.296875 2.984375 15.296875 6.859375 
z
" id="CMR17-108"/>
      <path d="M 41.5 30.53125 
C 41.5 35.65625 40.5 44 28.703125 44 
C 20.796875 44 16.703125 37.875 15.203125 33.84375 
L 15.09375 33.84375 
L 15.09375 44 
L 3.296875 42.890625 
L 3.296875 40.28125 
C 9.203125 40.28125 10.09375 39.6875 10.09375 34.859375 
L 10.09375 6.921875 
C 10.09375 3.09375 9.703125 2.59375 3.296875 2.59375 
L 3.296875 0 
C 5.703125 0.1875 10.09375 0.1875 12.703125 0.1875 
C 15.296875 0.1875 19.796875 0.1875 22.203125 0 
L 22.203125 2.59375 
C 15.796875 2.59375 15.40625 3 15.40625 6.921875 
L 15.40625 26.21875 
C 15.40625 35.453125 21 42.390625 28 42.390625 
C 35.40625 42.390625 36.203125 35.765625 36.203125 30.9375 
L 36.203125 6.921875 
C 36.203125 3.09375 35.796875 2.59375 29.40625 2.59375 
L 29.40625 0 
C 31.796875 0.1875 36.203125 0.1875 38.796875 0.1875 
C 41.40625 0.1875 45.90625 0.1875 48.296875 0 
L 48.296875 2.59375 
C 41.90625 2.59375 41.5 3 41.5 6.921875 
z
" id="CMR17-110"/>
      <path d="M 58.203125 34.15625 
C 60.203125 40.09375 64.203125 40.296875 65.703125 40.390625 
L 65.703125 43 
C 63.703125 42.890625 61.703125 42.796875 59.703125 42.796875 
C 57.796875 42.796875 53.5 42.796875 51.796875 43 
L 51.796875 40.390625 
C 54.90625 40.1875 56.59375 38.375 56.59375 35.875 
C 56.59375 35.171875 56.40625 34.265625 56.203125 33.5625 
L 46.796875 6.21875 
L 36.59375 35.875 
C 36.40625 36.578125 36.09375 37.375 36.09375 37.78125 
C 36.09375 40.390625 39.5 40.390625 41.09375 40.390625 
L 41.09375 43 
C 38.796875 42.796875 34.59375 42.796875 32.203125 42.796875 
C 29.703125 42.796875 27.09375 42.796875 24.796875 43 
L 24.796875 40.390625 
C 30.296875 40.390625 30.296875 40.1875 32.40625 33.859375 
L 23.203125 6.921875 
L 13.296875 35.96875 
C 12.796875 37.28125 12.796875 37.484375 12.796875 37.78125 
C 12.796875 40.390625 16.203125 40.390625 17.796875 40.390625 
L 17.796875 43 
C 15.40625 42.796875 11.203125 42.796875 8.703125 42.796875 
C 6.5 42.796875 3.09375 42.796875 1 43 
L 1 40.390625 
C 5.40625 40.390625 6.5 40.09375 7.59375 36.765625 
L 19.90625 0.59375 
C 20.296875 -0.703125 20.59375 -1 21.40625 -1 
C 22.09375 -1 22.5 -0.8125 23 0.6875 
L 33.296875 31.046875 
L 43.703125 0.6875 
C 44.203125 -0.8125 44.59375 -1 45.296875 -1 
C 46.09375 -1 46.40625 -0.703125 46.796875 0.59375 
z
" id="CMR17-119"/>
      <path d="M 15 69 
L 3.09375 67.890625 
L 3.09375 65.296875 
C 9 65.296875 9.90625 64.703125 9.90625 60.046875 
L 9.90625 -0.203125 
L 11.703125 -0.203125 
L 14.59375 6.953125 
C 17.5 2.203125 21.796875 -1 27.59375 -1 
C 37.59375 -1 47.703125 7.859375 47.703125 21.59375 
C 47.703125 34.515625 38.703125 44 28.59375 44 
C 22.40625 44 18 40.671875 15 36.734375 
z
M 15.203125 31.59375 
C 15.203125 33.40625 15.203125 33.703125 16.59375 35.828125 
C 20.5 41.890625 26.09375 42.390625 28 42.390625 
C 31 42.390625 41.296875 40.78125 41.296875 21.6875 
C 41.296875 1.703125 29.5 0.59375 27.09375 0.59375 
C 24 0.59375 19.5 1.796875 16.296875 7.65625 
C 15.203125 9.578125 15.203125 9.78125 15.203125 11.59375 
z
" id="CMR17-98"/>
      <path d="M 22 -17.40625 
C 15.59375 -17.40625 15.203125 -17 15.203125 -13.03125 
L 15.203125 5.9375 
C 18.09375 1.703125 22.296875 -1 27.59375 -1 
C 37.59375 -1 47.703125 7.859375 47.703125 21.59375 
C 47.703125 34.3125 39 44 28.703125 44 
C 22.703125 44 17.796875 40.671875 15 36.640625 
L 15 44 
L 3.09375 42.890625 
L 3.09375 40.265625 
C 9 40.265625 9.90625 39.671875 9.90625 34.8125 
L 9.90625 -13.03125 
C 9.90625 -16.890625 9.5 -17.40625 3.09375 -17.40625 
L 3.09375 -20 
C 5.5 -19.8125 9.90625 -19.8125 12.5 -19.8125 
C 15.09375 -19.8125 19.59375 -19.8125 22 -20 
z
M 15.203125 31.484375 
C 15.203125 32.90625 15.203125 35.015625 19.09375 38.765625 
C 19.59375 39.15625 23 42.1875 28 42.1875 
C 35.296875 42.1875 41.296875 33 41.296875 21.5 
C 41.296875 9.984375 34.90625 0.59375 27 0.59375 
C 23.40625 0.59375 19.5 2.3125 16.5 7.046875 
C 15.203125 9.28125 15.203125 9.875 15.203125 11.5 
z
" id="CMR17-112"/>
     </defs>
     <use transform="scale(0.996264)" xlink:href="#CMR17-80"/>
     <use transform="translate(62.586301 0)scale(0.996264)" xlink:href="#CMR17-115"/>
     <use transform="translate(98.387638 0)scale(0.996264)" xlink:href="#CMR17-121"/>
     <use transform="translate(146.680554 0)scale(0.996264)" xlink:href="#CMR17-99"/>
     <use transform="translate(184.563761 0)scale(0.996264)" xlink:href="#CMR17-104"/>
     <use transform="translate(235.45913 0)scale(0.996264)" xlink:href="#CMR17-111"/>
     <use transform="translate(281.149607 0)scale(0.996264)" xlink:href="#CMR17-115"/>
     <use transform="translate(316.950945 0)scale(0.996264)" xlink:href="#CMR17-116"/>
     <use transform="translate(352.231713 0)scale(0.996264)" xlink:href="#CMR17-105"/>
     <use transform="translate(377.102771 0)scale(0.996264)" xlink:href="#CMR17-109"/>
     <use transform="translate(451.419907 0)scale(0.996264)" xlink:href="#CMR17-117"/>
     <use transform="translate(502.315277 0)scale(0.996264)" xlink:href="#CMR17-108"/>
     <use transform="translate(527.186336 0)scale(0.996264)" xlink:href="#CMR17-97"/>
     <use transform="translate(572.876813 0)scale(0.996264)" xlink:href="#CMR17-110"/>
     <use transform="translate(621.169729 0)scale(0.996264)" xlink:href="#CMR17-116"/>
     <use transform="translate(656.450496 0)scale(0.996264)" xlink:href="#CMR17-115"/>
     <use transform="translate(722.3278 0)scale(0.996264)" xlink:href="#CMR17-119"/>
     <use transform="translate(788.837681 0)scale(0.996264)" xlink:href="#CMR17-105"/>
     <use transform="translate(813.708739 0)scale(0.996264)" xlink:href="#CMR17-116"/>
     <use transform="translate(848.989507 0)scale(0.996264)" xlink:href="#CMR17-104"/>
     <use transform="translate(929.960843 0)scale(0.996264)" xlink:href="#CMR17-97"/>
     <use transform="translate(975.65132 0)scale(0.996264)" xlink:href="#CMR17-98"/>
     <use transform="translate(1026.54669 0)scale(0.996264)" xlink:href="#CMR17-117"/>
     <use transform="translate(1077.44206 0)scale(0.996264)" xlink:href="#CMR17-115"/>
     <use transform="translate(1113.243398 0)scale(0.996264)" xlink:href="#CMR17-101"/>
     <use transform="translate(1183.805024 0)scale(0.996264)" xlink:href="#CMR17-112"/>
     <use transform="translate(1237.302833 0)scale(0.996264)" xlink:href="#CMR17-111"/>
     <use transform="translate(1282.99331 0)scale(0.996264)" xlink:href="#CMR17-116"/>
     <use transform="translate(1318.274078 0)scale(0.996264)" xlink:href="#CMR17-101"/>
     <use transform="translate(1358.759738 0)scale(0.996264)" xlink:href="#CMR17-110"/>
     <use transform="translate(1407.052654 0)scale(0.996264)" xlink:href="#CMR17-116"/>
     <use transform="translate(1442.333422 0)scale(0.996264)" xlink:href="#CMR17-105"/>
     <use transform="translate(1467.20448 0)scale(0.996264)" xlink:href="#CMR17-97"/>
     <use transform="translate(1512.894958 0)scale(0.996264)" xlink:href="#CMR17-108"/>
    </g>
   </g>
  </g>
  <g id="axes_2">
   <g id="patch_7">
    <path d="M 279.714188 134.138818 
L 468.551693 134.138818 
L 468.551693 45.145274 
L 279.714188 45.145274 
z
" style="fill:#ffffff;"/>
   </g>
   <g id="matplotlib.axis_3">
    <g id="xtick_7">
     <g id="line2d_16">
      <path clip-path="url(#p02f1600507)" d="M 279.714188 134.138818 
L 279.714188 45.145274 
" style="fill:none;stroke:#cccccc;stroke-linecap:round;stroke-width:0.8;"/>
     </g>
     <g id="text_15">
      <!-- $\mathdefault{1995}$ -->
      <g style="fill:#262626;" transform="translate(270.896516 146.90192)scale(0.0833 -0.0833)">
       <use transform="scale(0.996264)" xlink:href="#CMR17-49"/>
       <use transform="translate(45.690477 0)scale(0.996264)" xlink:href="#CMR17-57"/>
       <use transform="translate(91.380954 0)scale(0.996264)" xlink:href="#CMR17-57"/>
       <use transform="translate(137.071431 0)scale(0.996264)" xlink:href="#CMR17-53"/>
      </g>
     </g>
    </g>
    <g id="xtick_8">
     <g id="line2d_17">
      <path clip-path="url(#p02f1600507)" d="M 317.481689 134.138818 
L 317.481689 45.145274 
" style="fill:none;stroke:#cccccc;stroke-linecap:round;stroke-width:0.8;"/>
     </g>
     <g id="text_16">
      <!-- $\mathdefault{2000}$ -->
      <g style="fill:#262626;" transform="translate(308.664017 146.90192)scale(0.0833 -0.0833)">
       <use transform="scale(0.996264)" xlink:href="#CMR17-50"/>
       <use transform="translate(45.690477 0)scale(0.996264)" xlink:href="#CMR17-48"/>
       <use transform="translate(91.380954 0)scale(0.996264)" xlink:href="#CMR17-48"/>
       <use transform="translate(137.071431 0)scale(0.996264)" xlink:href="#CMR17-48"/>
      </g>
     </g>
    </g>
    <g id="xtick_9">
     <g id="line2d_18">
      <path clip-path="url(#p02f1600507)" d="M 355.24919 134.138818 
L 355.24919 45.145274 
" style="fill:none;stroke:#cccccc;stroke-linecap:round;stroke-width:0.8;"/>
     </g>
     <g id="text_17">
      <!-- $\mathdefault{2005}$ -->
      <g style="fill:#262626;" transform="translate(346.431518 146.90192)scale(0.0833 -0.0833)">
       <use transform="scale(0.996264)" xlink:href="#CMR17-50"/>
       <use transform="translate(45.690477 0)scale(0.996264)" xlink:href="#CMR17-48"/>
       <use transform="translate(91.380954 0)scale(0.996264)" xlink:href="#CMR17-48"/>
       <use transform="translate(137.071431 0)scale(0.996264)" xlink:href="#CMR17-53"/>
      </g>
     </g>
    </g>
    <g id="xtick_10">
     <g id="line2d_19">
      <path clip-path="url(#p02f1600507)" d="M 393.016691 134.138818 
L 393.016691 45.145274 
" style="fill:none;stroke:#cccccc;stroke-linecap:round;stroke-width:0.8;"/>
     </g>
     <g id="text_18">
      <!-- $\mathdefault{2010}$ -->
      <g style="fill:#262626;" transform="translate(384.199019 146.90192)scale(0.0833 -0.0833)">
       <use transform="scale(0.996264)" xlink:href="#CMR17-50"/>
       <use transform="translate(45.690477 0)scale(0.996264)" xlink:href="#CMR17-48"/>
       <use transform="translate(91.380954 0)scale(0.996264)" xlink:href="#CMR17-49"/>
       <use transform="translate(137.071431 0)scale(0.996264)" xlink:href="#CMR17-48"/>
      </g>
     </g>
    </g>
    <g id="xtick_11">
     <g id="line2d_20">
      <path clip-path="url(#p02f1600507)" d="M 430.784192 134.138818 
L 430.784192 45.145274 
" style="fill:none;stroke:#cccccc;stroke-linecap:round;stroke-width:0.8;"/>
     </g>
     <g id="text_19">
      <!-- $\mathdefault{2015}$ -->
      <g style="fill:#262626;" transform="translate(421.96652 146.90192)scale(0.0833 -0.0833)">
       <use transform="scale(0.996264)" xlink:href="#CMR17-50"/>
       <use transform="translate(45.690477 0)scale(0.996264)" xlink:href="#CMR17-48"/>
       <use transform="translate(91.380954 0)scale(0.996264)" xlink:href="#CMR17-49"/>
       <use transform="translate(137.071431 0)scale(0.996264)" xlink:href="#CMR17-53"/>
      </g>
     </g>
    </g>
    <g id="xtick_12">
     <g id="line2d_21">
      <path clip-path="url(#p02f1600507)" d="M 468.551693 134.138818 
L 468.551693 45.145274 
" style="fill:none;stroke:#cccccc;stroke-linecap:round;stroke-width:0.8;"/>
     </g>
     <g id="text_20">
      <!-- $\mathdefault{2020}$ -->
      <g style="fill:#262626;" transform="translate(459.73402 146.90192)scale(0.0833 -0.0833)">
       <use transform="scale(0.996264)" xlink:href="#CMR17-50"/>
       <use transform="translate(45.690477 0)scale(0.996264)" xlink:href="#CMR17-48"/>
       <use transform="translate(91.380954 0)scale(0.996264)" xlink:href="#CMR17-50"/>
       <use transform="translate(137.071431 0)scale(0.996264)" xlink:href="#CMR17-48"/>
      </g>
     </g>
    </g>
   </g>
   <g id="matplotlib.axis_4">
    <g id="ytick_7">
     <g id="line2d_22">
      <path clip-path="url(#p02f1600507)" d="M 279.714188 134.138818 
L 468.551693 134.138818 
" style="fill:none;stroke:#cccccc;stroke-linecap:round;stroke-width:0.8;"/>
     </g>
     <g id="text_21">
      <!-- $\mathdefault{0.0}$ -->
      <g style="fill:#262626;" transform="translate(261.447159 137.020369)scale(0.0833 -0.0833)">
       <use transform="scale(0.996264)" xlink:href="#CMR17-48"/>
       <use transform="translate(45.690477 0)scale(0.996264)" xlink:href="#CMMI12-58"/>
       <use transform="translate(72.787654 0)scale(0.996264)" xlink:href="#CMR17-48"/>
      </g>
     </g>
    </g>
    <g id="ytick_8">
     <g id="line2d_23">
      <path clip-path="url(#p02f1600507)" d="M 279.714188 116.340109 
L 468.551693 116.340109 
" style="fill:none;stroke:#cccccc;stroke-linecap:round;stroke-width:0.8;"/>
     </g>
     <g id="text_22">
      <!-- $\mathdefault{0.1}$ -->
      <g style="fill:#262626;" transform="translate(261.447159 119.22166)scale(0.0833 -0.0833)">
       <use transform="scale(0.996264)" xlink:href="#CMR17-48"/>
       <use transform="translate(45.690477 0)scale(0.996264)" xlink:href="#CMMI12-58"/>
       <use transform="translate(72.787654 0)scale(0.996264)" xlink:href="#CMR17-49"/>
      </g>
     </g>
    </g>
    <g id="ytick_9">
     <g id="line2d_24">
      <path clip-path="url(#p02f1600507)" d="M 279.714188 98.5414 
L 468.551693 98.5414 
" style="fill:none;stroke:#cccccc;stroke-linecap:round;stroke-width:0.8;"/>
     </g>
     <g id="text_23">
      <!-- $\mathdefault{0.2}$ -->
      <g style="fill:#262626;" transform="translate(261.447159 101.422951)scale(0.0833 -0.0833)">
       <use transform="scale(0.996264)" xlink:href="#CMR17-48"/>
       <use transform="translate(45.690477 0)scale(0.996264)" xlink:href="#CMMI12-58"/>
       <use transform="translate(72.787654 0)scale(0.996264)" xlink:href="#CMR17-50"/>
      </g>
     </g>
    </g>
    <g id="ytick_10">
     <g id="line2d_25">
      <path clip-path="url(#p02f1600507)" d="M 279.714188 80.742692 
L 468.551693 80.742692 
" style="fill:none;stroke:#cccccc;stroke-linecap:round;stroke-width:0.8;"/>
     </g>
     <g id="text_24">
      <!-- $\mathdefault{0.3}$ -->
      <g style="fill:#262626;" transform="translate(261.447159 83.624243)scale(0.0833 -0.0833)">
       <use transform="scale(0.996264)" xlink:href="#CMR17-48"/>
       <use transform="translate(45.690477 0)scale(0.996264)" xlink:href="#CMMI12-58"/>
       <use transform="translate(72.787654 0)scale(0.996264)" xlink:href="#CMR17-51"/>
      </g>
     </g>
    </g>
    <g id="ytick_11">
     <g id="line2d_26">
      <path clip-path="url(#p02f1600507)" d="M 279.714188 62.943983 
L 468.551693 62.943983 
" style="fill:none;stroke:#cccccc;stroke-linecap:round;stroke-width:0.8;"/>
     </g>
     <g id="text_25">
      <!-- $\mathdefault{0.4}$ -->
      <g style="fill:#262626;" transform="translate(261.447159 65.825534)scale(0.0833 -0.0833)">
       <use transform="scale(0.996264)" xlink:href="#CMR17-48"/>
       <use transform="translate(45.690477 0)scale(0.996264)" xlink:href="#CMMI12-58"/>
       <use transform="translate(72.787654 0)scale(0.996264)" xlink:href="#CMR17-52"/>
      </g>
     </g>
    </g>
    <g id="ytick_12">
     <g id="line2d_27">
      <path clip-path="url(#p02f1600507)" d="M 279.714188 45.145274 
L 468.551693 45.145274 
" style="fill:none;stroke:#cccccc;stroke-linecap:round;stroke-width:0.8;"/>
     </g>
     <g id="text_26">
      <!-- $\mathdefault{0.5}$ -->
      <g style="fill:#262626;" transform="translate(261.447159 48.026825)scale(0.0833 -0.0833)">
       <use transform="scale(0.996264)" xlink:href="#CMR17-48"/>
       <use transform="translate(45.690477 0)scale(0.996264)" xlink:href="#CMMI12-58"/>
       <use transform="translate(72.787654 0)scale(0.996264)" xlink:href="#CMR17-53"/>
      </g>
     </g>
    </g>
   </g>
   <g id="line2d_28">
    <path clip-path="url(#p02f1600507)" d="M 309.928189 134.138818 
L 317.481689 134.138818 
L 325.035189 134.138818 
L 332.58869 134.138818 
L 340.14219 134.138818 
L 347.69569 134.138818 
L 355.24919 134.138818 
L 362.80269 134.138818 
L 370.35619 134.138818 
L 377.909691 125.773425 
L 385.463191 125.595438 
L 393.016691 124.883489 
L 400.570191 123.815567 
L 408.123691 113.136342 
L 415.677191 104.948936 
L 423.230692 103.169065 
L 430.784192 91.065943 
L 438.337692 80.20873 
L 445.891192 75.225092 
L 453.444692 77.894898 
L 460.998192 78.428859 
L 468.551693 95.159646 
" style="fill:none;stroke:#000000;stroke-linecap:round;stroke-opacity:0.8;stroke-width:1.5;"/>
   </g>
   <g id="line2d_29">
    <path clip-path="url(#p02f1600507)" d="M 309.928189 134.138818 
L 317.481689 134.138818 
L 325.035189 134.138818 
L 332.58869 134.138818 
L 340.14219 134.138818 
L 347.69569 134.138818 
L 355.24919 134.138818 
L 362.80269 134.138818 
L 370.35619 134.138818 
L 377.909691 125.773425 
L 385.463191 125.595438 
L 393.016691 124.883489 
L 400.570191 123.815567 
L 408.123691 117.052058 
L 415.677191 110.466535 
L 423.230692 110.288548 
L 430.784192 103.169065 
L 438.337692 93.379775 
L 445.891192 91.777891 
L 453.444692 95.51562 
L 460.998192 97.117504 
L 468.551693 107.262768 
" style="fill:none;stroke:#a9a9a9;stroke-dasharray:7.5,1.5;stroke-dashoffset:0;stroke-opacity:0.8;stroke-width:1.5;"/>
   </g>
   <g id="line2d_30">
    <path clip-path="url(#p02f1600507)" d="M 309.928189 134.138818 
L 317.481689 134.138818 
L 325.035189 134.138818 
L 332.58869 134.138818 
L 340.14219 134.138818 
L 347.69569 134.138818 
L 355.24919 134.138818 
L 362.80269 134.138818 
L 370.35619 134.138818 
L 377.909691 134.138818 
L 385.463191 134.138818 
L 393.016691 134.138818 
L 400.570191 134.138818 
L 408.123691 130.223102 
L 415.677191 128.621218 
L 423.230692 127.019334 
L 430.784192 122.035696 
L 438.337692 120.967773 
L 445.891192 117.586019 
L 453.444692 116.518096 
L 460.998192 115.450174 
L 468.551693 122.035696 
" style="fill:none;stroke:#708090;stroke-dasharray:4.5,1.5,1.5,1.5;stroke-dashoffset:0;stroke-opacity:0.8;stroke-width:1.5;"/>
   </g>
   <g id="patch_8">
    <path d="M 279.714188 134.138818 
L 279.714188 45.145274 
" style="fill:none;stroke:#cccccc;stroke-linecap:square;stroke-linejoin:miter;stroke-width:0.8;"/>
   </g>
   <g id="patch_9">
    <path d="M 468.551693 134.138818 
L 468.551693 45.145274 
" style="fill:none;stroke:#cccccc;stroke-linecap:square;stroke-linejoin:miter;stroke-width:0.8;"/>
   </g>
   <g id="patch_10">
    <path d="M 279.714188 134.138818 
L 468.551693 134.138818 
" style="fill:none;stroke:#cccccc;stroke-linecap:square;stroke-linejoin:miter;stroke-width:0.8;"/>
   </g>
   <g id="patch_11">
    <path d="M 279.714188 45.145274 
L 468.551693 45.145274 
" style="fill:none;stroke:#cccccc;stroke-linecap:square;stroke-linejoin:miter;stroke-width:0.8;"/>
   </g>
   <g id="text_27">
    <!-- Heroin -->
    <g style="fill:#262626;" transform="translate(359.590224 39.145274)scale(0.1 -0.1)">
     <defs>
      <path d="M 56.09375 60.90625 
C 56.09375 65.390625 57.203125 65.390625 64.09375 65.390625 
L 64.09375 68 
C 61.203125 67.796875 55.90625 67.796875 52.796875 67.796875 
C 49.703125 67.796875 44.40625 67.796875 41.5 68 
L 41.5 65.390625 
C 48.40625 65.390625 49.5 65.390625 49.5 60.90625 
L 49.5 36.59375 
L 19.703125 36.59375 
L 19.703125 60.90625 
C 19.703125 65.390625 20.796875 65.390625 27.703125 65.390625 
L 27.703125 68 
C 24.796875 67.796875 19.5 67.796875 16.40625 67.796875 
C 13.296875 67.796875 8 67.796875 5.09375 68 
L 5.09375 65.390625 
C 12 65.390625 13.09375 65.390625 13.09375 60.90625 
L 13.09375 7.0625 
C 13.09375 2.59375 12 2.59375 5.09375 2.59375 
L 5.09375 0 
C 8 0.1875 13.296875 0.1875 16.40625 0.1875 
C 19.5 0.1875 24.796875 0.1875 27.703125 0 
L 27.703125 2.59375 
C 20.796875 2.59375 19.703125 2.59375 19.703125 7.0625 
L 19.703125 34 
L 49.5 34 
L 49.5 7.0625 
C 49.5 2.59375 48.40625 2.59375 41.5 2.59375 
L 41.5 0 
C 44.40625 0.1875 49.703125 0.1875 52.796875 0.1875 
C 55.90625 0.1875 61.203125 0.1875 64.09375 0 
L 64.09375 2.59375 
C 57.203125 2.59375 56.09375 2.59375 56.09375 7.0625 
z
" id="CMR17-72"/>
      <path d="M 15 23.703125 
C 15 33.34375 19.09375 42.390625 26.59375 42.390625 
C 27.296875 42.390625 28 42.296875 28.703125 41.984375 
C 28.703125 41.984375 26.5 41.28125 26.5 38.671875 
C 26.5 36.265625 28.40625 35.265625 29.90625 35.265625 
C 31.09375 35.265625 33.296875 35.96875 33.296875 38.78125 
C 33.296875 41.984375 30.09375 44 26.703125 44 
C 19.09375 44 15.796875 36.5625 14.796875 33.046875 
L 14.703125 33.046875 
L 14.703125 44 
L 3.09375 42.890625 
L 3.09375 40.28125 
C 9 40.28125 9.90625 39.6875 9.90625 34.859375 
L 9.90625 6.921875 
C 9.90625 3.09375 9.5 2.59375 3.09375 2.59375 
L 3.09375 0 
C 5.5 0.1875 10.09375 0.1875 12.703125 0.1875 
C 15.59375 0.1875 20.703125 0.1875 23.40625 0 
L 23.40625 2.59375 
C 16.203125 2.59375 15 2.59375 15 7.109375 
z
" id="CMR17-114"/>
     </defs>
     <use transform="scale(0.996264)" xlink:href="#CMR17-72"/>
     <use transform="translate(69.07243 0)scale(0.996264)" xlink:href="#CMR17-101"/>
     <use transform="translate(109.55809 0)scale(0.996264)" xlink:href="#CMR17-114"/>
     <use transform="translate(144.838858 0)scale(0.996264)" xlink:href="#CMR17-111"/>
     <use transform="translate(190.529335 0)scale(0.996264)" xlink:href="#CMR17-105"/>
     <use transform="translate(215.400394 0)scale(0.996264)" xlink:href="#CMR17-110"/>
    </g>
   </g>
  </g>
  <g id="axes_3">
   <g id="patch_12">
    <path d="M 43.667308 276.528488 
L 232.504812 276.528488 
L 232.504812 187.534944 
L 43.667308 187.534944 
z
" style="fill:#ffffff;"/>
   </g>
   <g id="matplotlib.axis_5">
    <g id="xtick_13">
     <g id="line2d_31">
      <path clip-path="url(#pd6d133a431)" d="M 43.667308 276.528488 
L 43.667308 187.534944 
" style="fill:none;stroke:#cccccc;stroke-linecap:round;stroke-width:0.8;"/>
     </g>
     <g id="text_28">
      <!-- $\mathdefault{1995}$ -->
      <g style="fill:#262626;" transform="translate(34.849636 289.291591)scale(0.0833 -0.0833)">
       <use transform="scale(0.996264)" xlink:href="#CMR17-49"/>
       <use transform="translate(45.690477 0)scale(0.996264)" xlink:href="#CMR17-57"/>
       <use transform="translate(91.380954 0)scale(0.996264)" xlink:href="#CMR17-57"/>
       <use transform="translate(137.071431 0)scale(0.996264)" xlink:href="#CMR17-53"/>
      </g>
     </g>
    </g>
    <g id="xtick_14">
     <g id="line2d_32">
      <path clip-path="url(#pd6d133a431)" d="M 81.434809 276.528488 
L 81.434809 187.534944 
" style="fill:none;stroke:#cccccc;stroke-linecap:round;stroke-width:0.8;"/>
     </g>
     <g id="text_29">
      <!-- $\mathdefault{2000}$ -->
      <g style="fill:#262626;" transform="translate(72.617137 289.291591)scale(0.0833 -0.0833)">
       <use transform="scale(0.996264)" xlink:href="#CMR17-50"/>
       <use transform="translate(45.690477 0)scale(0.996264)" xlink:href="#CMR17-48"/>
       <use transform="translate(91.380954 0)scale(0.996264)" xlink:href="#CMR17-48"/>
       <use transform="translate(137.071431 0)scale(0.996264)" xlink:href="#CMR17-48"/>
      </g>
     </g>
    </g>
    <g id="xtick_15">
     <g id="line2d_33">
      <path clip-path="url(#pd6d133a431)" d="M 119.20231 276.528488 
L 119.20231 187.534944 
" style="fill:none;stroke:#cccccc;stroke-linecap:round;stroke-width:0.8;"/>
     </g>
     <g id="text_30">
      <!-- $\mathdefault{2005}$ -->
      <g style="fill:#262626;" transform="translate(110.384637 289.291591)scale(0.0833 -0.0833)">
       <use transform="scale(0.996264)" xlink:href="#CMR17-50"/>
       <use transform="translate(45.690477 0)scale(0.996264)" xlink:href="#CMR17-48"/>
       <use transform="translate(91.380954 0)scale(0.996264)" xlink:href="#CMR17-48"/>
       <use transform="translate(137.071431 0)scale(0.996264)" xlink:href="#CMR17-53"/>
      </g>
     </g>
    </g>
    <g id="xtick_16">
     <g id="line2d_34">
      <path clip-path="url(#pd6d133a431)" d="M 156.96981 276.528488 
L 156.96981 187.534944 
" style="fill:none;stroke:#cccccc;stroke-linecap:round;stroke-width:0.8;"/>
     </g>
     <g id="text_31">
      <!-- $\mathdefault{2010}$ -->
      <g style="fill:#262626;" transform="translate(148.152138 289.291591)scale(0.0833 -0.0833)">
       <use transform="scale(0.996264)" xlink:href="#CMR17-50"/>
       <use transform="translate(45.690477 0)scale(0.996264)" xlink:href="#CMR17-48"/>
       <use transform="translate(91.380954 0)scale(0.996264)" xlink:href="#CMR17-49"/>
       <use transform="translate(137.071431 0)scale(0.996264)" xlink:href="#CMR17-48"/>
      </g>
     </g>
    </g>
    <g id="xtick_17">
     <g id="line2d_35">
      <path clip-path="url(#pd6d133a431)" d="M 194.737311 276.528488 
L 194.737311 187.534944 
" style="fill:none;stroke:#cccccc;stroke-linecap:round;stroke-width:0.8;"/>
     </g>
     <g id="text_32">
      <!-- $\mathdefault{2015}$ -->
      <g style="fill:#262626;" transform="translate(185.919639 289.291591)scale(0.0833 -0.0833)">
       <use transform="scale(0.996264)" xlink:href="#CMR17-50"/>
       <use transform="translate(45.690477 0)scale(0.996264)" xlink:href="#CMR17-48"/>
       <use transform="translate(91.380954 0)scale(0.996264)" xlink:href="#CMR17-49"/>
       <use transform="translate(137.071431 0)scale(0.996264)" xlink:href="#CMR17-53"/>
      </g>
     </g>
    </g>
    <g id="xtick_18">
     <g id="line2d_36">
      <path clip-path="url(#pd6d133a431)" d="M 232.504812 276.528488 
L 232.504812 187.534944 
" style="fill:none;stroke:#cccccc;stroke-linecap:round;stroke-width:0.8;"/>
     </g>
     <g id="text_33">
      <!-- $\mathdefault{2020}$ -->
      <g style="fill:#262626;" transform="translate(223.68714 289.291591)scale(0.0833 -0.0833)">
       <use transform="scale(0.996264)" xlink:href="#CMR17-50"/>
       <use transform="translate(45.690477 0)scale(0.996264)" xlink:href="#CMR17-48"/>
       <use transform="translate(91.380954 0)scale(0.996264)" xlink:href="#CMR17-50"/>
       <use transform="translate(137.071431 0)scale(0.996264)" xlink:href="#CMR17-48"/>
      </g>
     </g>
    </g>
   </g>
   <g id="matplotlib.axis_6">
    <g id="ytick_13">
     <g id="line2d_37">
      <path clip-path="url(#pd6d133a431)" d="M 43.667308 276.528488 
L 232.504812 276.528488 
" style="fill:none;stroke:#cccccc;stroke-linecap:round;stroke-width:0.8;"/>
     </g>
     <g id="text_34">
      <!-- $\mathdefault{0.0}$ -->
      <g style="fill:#262626;" transform="translate(25.400279 279.41004)scale(0.0833 -0.0833)">
       <use transform="scale(0.996264)" xlink:href="#CMR17-48"/>
       <use transform="translate(45.690477 0)scale(0.996264)" xlink:href="#CMMI12-58"/>
       <use transform="translate(72.787654 0)scale(0.996264)" xlink:href="#CMR17-48"/>
      </g>
     </g>
    </g>
    <g id="ytick_14">
     <g id="line2d_38">
      <path clip-path="url(#pd6d133a431)" d="M 43.667308 258.72978 
L 232.504812 258.72978 
" style="fill:none;stroke:#cccccc;stroke-linecap:round;stroke-width:0.8;"/>
     </g>
     <g id="text_35">
      <!-- $\mathdefault{0.1}$ -->
      <g style="fill:#262626;" transform="translate(25.400279 261.611331)scale(0.0833 -0.0833)">
       <use transform="scale(0.996264)" xlink:href="#CMR17-48"/>
       <use transform="translate(45.690477 0)scale(0.996264)" xlink:href="#CMMI12-58"/>
       <use transform="translate(72.787654 0)scale(0.996264)" xlink:href="#CMR17-49"/>
      </g>
     </g>
    </g>
    <g id="ytick_15">
     <g id="line2d_39">
      <path clip-path="url(#pd6d133a431)" d="M 43.667308 240.931071 
L 232.504812 240.931071 
" style="fill:none;stroke:#cccccc;stroke-linecap:round;stroke-width:0.8;"/>
     </g>
     <g id="text_36">
      <!-- $\mathdefault{0.2}$ -->
      <g style="fill:#262626;" transform="translate(25.400279 243.812622)scale(0.0833 -0.0833)">
       <use transform="scale(0.996264)" xlink:href="#CMR17-48"/>
       <use transform="translate(45.690477 0)scale(0.996264)" xlink:href="#CMMI12-58"/>
       <use transform="translate(72.787654 0)scale(0.996264)" xlink:href="#CMR17-50"/>
      </g>
     </g>
    </g>
    <g id="ytick_16">
     <g id="line2d_40">
      <path clip-path="url(#pd6d133a431)" d="M 43.667308 223.132362 
L 232.504812 223.132362 
" style="fill:none;stroke:#cccccc;stroke-linecap:round;stroke-width:0.8;"/>
     </g>
     <g id="text_37">
      <!-- $\mathdefault{0.3}$ -->
      <g style="fill:#262626;" transform="translate(25.400279 226.013913)scale(0.0833 -0.0833)">
       <use transform="scale(0.996264)" xlink:href="#CMR17-48"/>
       <use transform="translate(45.690477 0)scale(0.996264)" xlink:href="#CMMI12-58"/>
       <use transform="translate(72.787654 0)scale(0.996264)" xlink:href="#CMR17-51"/>
      </g>
     </g>
    </g>
    <g id="ytick_17">
     <g id="line2d_41">
      <path clip-path="url(#pd6d133a431)" d="M 43.667308 205.333653 
L 232.504812 205.333653 
" style="fill:none;stroke:#cccccc;stroke-linecap:round;stroke-width:0.8;"/>
     </g>
     <g id="text_38">
      <!-- $\mathdefault{0.4}$ -->
      <g style="fill:#262626;" transform="translate(25.400279 208.215204)scale(0.0833 -0.0833)">
       <use transform="scale(0.996264)" xlink:href="#CMR17-48"/>
       <use transform="translate(45.690477 0)scale(0.996264)" xlink:href="#CMMI12-58"/>
       <use transform="translate(72.787654 0)scale(0.996264)" xlink:href="#CMR17-52"/>
      </g>
     </g>
    </g>
    <g id="ytick_18">
     <g id="line2d_42">
      <path clip-path="url(#pd6d133a431)" d="M 43.667308 187.534944 
L 232.504812 187.534944 
" style="fill:none;stroke:#cccccc;stroke-linecap:round;stroke-width:0.8;"/>
     </g>
     <g id="text_39">
      <!-- $\mathdefault{0.5}$ -->
      <g style="fill:#262626;" transform="translate(25.400279 190.416495)scale(0.0833 -0.0833)">
       <use transform="scale(0.996264)" xlink:href="#CMR17-48"/>
       <use transform="translate(45.690477 0)scale(0.996264)" xlink:href="#CMMI12-58"/>
       <use transform="translate(72.787654 0)scale(0.996264)" xlink:href="#CMR17-53"/>
      </g>
     </g>
    </g>
    <g id="text_40">
     <!-- Deaths [$\times 10^3$] -->
     <g style="fill:#262626;" transform="translate(18.909619 262.72917)rotate(-90)scale(0.1 -0.1)">
      <use transform="scale(0.996264)" xlink:href="#CMR17-68"/>
      <use transform="translate(70.393556 0)scale(0.996264)" xlink:href="#CMR17-101"/>
      <use transform="translate(110.879216 0)scale(0.996264)" xlink:href="#CMR17-97"/>
      <use transform="translate(156.569693 0)scale(0.996264)" xlink:href="#CMR17-116"/>
      <use transform="translate(191.850461 0)scale(0.996264)" xlink:href="#CMR17-104"/>
      <use transform="translate(242.745831 0)scale(0.996264)" xlink:href="#CMR17-115"/>
      <use transform="translate(308.623135 0)scale(0.996264)" xlink:href="#CMR17-91"/>
      <use transform="translate(333.494194 0)scale(0.996264)" xlink:href="#CMSY10-2"/>
      <use transform="translate(410.981661 0)scale(0.996264)" xlink:href="#CMR17-49"/>
      <use transform="translate(456.672138 0)scale(0.996264)" xlink:href="#CMR17-48"/>
      <use transform="translate(502.362615 36.153639)scale(0.697382)" xlink:href="#CMR17-51"/>
      <use transform="translate(534.843929 0)scale(0.996264)" xlink:href="#CMR17-93"/>
     </g>
    </g>
   </g>
   <g id="line2d_43">
    <path clip-path="url(#pd6d133a431)" d="M 73.881309 276.528488 
L 81.434809 276.528488 
L 88.988309 272.434785 
L 96.541809 272.612773 
L 104.095309 270.654915 
L 111.648809 267.095173 
L 119.20231 265.493289 
L 126.75581 270.832902 
L 134.30931 261.221599 
L 141.86281 255.881986 
L 149.41631 248.584516 
L 156.96981 250.542374 
L 164.523311 243.600877 
L 172.076811 250.542374 
L 179.630311 254.814064 
L 187.183811 247.69458 
L 194.737311 247.516593 
L 202.290812 232.565678 
L 209.844312 204.799692 
L 217.397812 215.478917 
L 224.951312 211.385214 
L 232.504812 198.392157 
" style="fill:none;stroke:#000000;stroke-linecap:round;stroke-opacity:0.8;stroke-width:1.5;"/>
   </g>
   <g id="line2d_44">
    <path clip-path="url(#pd6d133a431)" d="M 73.881309 276.528488 
L 81.434809 276.528488 
L 88.988309 272.434785 
L 96.541809 272.612773 
L 104.095309 270.654915 
L 111.648809 270.654915 
L 119.20231 269.586992 
L 126.75581 270.832902 
L 134.30931 266.739199 
L 141.86281 263.179457 
L 149.41631 258.551793 
L 156.96981 261.933547 
L 164.523311 258.373805 
L 172.076811 262.467508 
L 179.630311 263.00147 
L 187.183811 259.441728 
L 194.737311 258.195818 
L 202.290812 253.034193 
L 209.844312 236.125419 
L 217.397812 240.931071 
L 224.951312 238.083277 
L 232.504812 225.980155 
" style="fill:none;stroke:#a9a9a9;stroke-dasharray:7.5,1.5;stroke-dashoffset:0;stroke-opacity:0.8;stroke-width:1.5;"/>
   </g>
   <g id="line2d_45">
    <path clip-path="url(#pd6d133a431)" d="M 73.881309 276.528488 
L 81.434809 276.528488 
L 88.988309 276.528488 
L 96.541809 276.528488 
L 104.095309 276.528488 
L 111.648809 272.968747 
L 119.20231 272.434785 
L 126.75581 276.528488 
L 134.30931 271.010889 
L 141.86281 269.231018 
L 149.41631 266.561212 
L 156.96981 265.137315 
L 164.523311 261.75556 
L 172.076811 264.603354 
L 179.630311 268.341082 
L 187.183811 264.781341 
L 194.737311 265.849263 
L 202.290812 256.059973 
L 209.844312 245.202761 
L 217.397812 251.076335 
L 224.951312 249.830425 
L 232.504812 248.94049 
" style="fill:none;stroke:#708090;stroke-dasharray:4.5,1.5,1.5,1.5;stroke-dashoffset:0;stroke-opacity:0.8;stroke-width:1.5;"/>
   </g>
   <g id="patch_13">
    <path d="M 43.667308 276.528488 
L 43.667308 187.534944 
" style="fill:none;stroke:#cccccc;stroke-linecap:square;stroke-linejoin:miter;stroke-width:0.8;"/>
   </g>
   <g id="patch_14">
    <path d="M 232.504812 276.528488 
L 232.504812 187.534944 
" style="fill:none;stroke:#cccccc;stroke-linecap:square;stroke-linejoin:miter;stroke-width:0.8;"/>
   </g>
   <g id="patch_15">
    <path d="M 43.667308 276.528488 
L 232.504812 276.528488 
" style="fill:none;stroke:#cccccc;stroke-linecap:square;stroke-linejoin:miter;stroke-width:0.8;"/>
   </g>
   <g id="patch_16">
    <path d="M 43.667308 187.534944 
L 232.504812 187.534944 
" style="fill:none;stroke:#cccccc;stroke-linecap:square;stroke-linejoin:miter;stroke-width:0.8;"/>
   </g>
   <g id="text_41">
    <!-- Other opioids -->
    <g style="fill:#262626;" transform="translate(108.433304 181.534944)scale(0.1 -0.1)">
     <defs>
      <path d="M 67.296875 33.84375 
C 67.296875 54.5 52.59375 70 36 70 
C 19 70 4.59375 54.296875 4.59375 33.84375 
C 4.59375 13.390625 19.203125 -2 35.90625 -2 
C 53 -2 67.296875 13.6875 67.296875 33.84375 
z
M 36 -0.203125 
C 24.59375 -0.203125 12.203125 11.28125 12.203125 35.15625 
C 12.203125 58.921875 25.796875 68.1875 35.90625 68.1875 
C 46.5 68.1875 59.703125 58.625 59.703125 35.15625 
C 59.703125 10.875 47 -0.203125 36 -0.203125 
z
" id="CMR17-79"/>
      <path d="M 29.203125 67.890625 
L 29.203125 65.296875 
C 35.09375 65.296875 36 64.703125 36 60.046875 
L 36 37.046875 
C 35.59375 37.546875 31.5 44 23.40625 44 
C 13.203125 44 3.296875 34.8125 3.296875 21.5 
C 3.296875 8.265625 12.59375 -1 22.40625 -1 
C 30.90625 -1 35.296875 5.640625 35.796875 6.34375 
L 35.796875 -1 
L 47.90625 -0.203125 
L 47.90625 2.40625 
C 42 2.40625 41.09375 3.015625 41.09375 7.859375 
L 41.09375 69 
z
M 35.796875 11.90625 
C 35.796875 8.875 34 6.140625 31.703125 4.125 
C 28.296875 1.09375 24.90625 0.59375 23 0.59375 
C 20.09375 0.59375 9.703125 2.109375 9.703125 21.390625 
C 9.703125 41.1875 21.296875 42.390625 23.90625 42.390625 
C 28.5 42.390625 32.203125 39.765625 34.5 36.140625 
C 35.796875 34.015625 35.796875 33.703125 35.796875 31.890625 
z
" id="CMR17-100"/>
     </defs>
     <use transform="scale(0.996264)" xlink:href="#CMR17-79"/>
     <use transform="translate(71.714788 0)scale(0.996264)" xlink:href="#CMR17-116"/>
     <use transform="translate(106.995556 0)scale(0.996264)" xlink:href="#CMR17-104"/>
     <use transform="translate(157.890926 0)scale(0.996264)" xlink:href="#CMR17-101"/>
     <use transform="translate(198.376586 0)scale(0.996264)" xlink:href="#CMR17-114"/>
     <use transform="translate(263.733321 0)scale(0.996264)" xlink:href="#CMR17-111"/>
     <use transform="translate(309.423798 0)scale(0.996264)" xlink:href="#CMR17-112"/>
     <use transform="translate(360.319168 0)scale(0.996264)" xlink:href="#CMR17-105"/>
     <use transform="translate(385.190226 0)scale(0.996264)" xlink:href="#CMR17-111"/>
     <use transform="translate(430.880703 0)scale(0.996264)" xlink:href="#CMR17-105"/>
     <use transform="translate(455.751762 0)scale(0.996264)" xlink:href="#CMR17-100"/>
     <use transform="translate(506.647131 0)scale(0.996264)" xlink:href="#CMR17-115"/>
    </g>
   </g>
  </g>
  <g id="axes_4">
   <g id="patch_17">
    <path d="M 279.714188 276.528488 
L 468.551693 276.528488 
L 468.551693 187.534944 
L 279.714188 187.534944 
z
" style="fill:#ffffff;"/>
   </g>
   <g id="matplotlib.axis_7">
    <g id="xtick_19">
     <g id="line2d_46">
      <path clip-path="url(#p8482a80b4a)" d="M 279.714188 276.528488 
L 279.714188 187.534944 
" style="fill:none;stroke:#cccccc;stroke-linecap:round;stroke-width:0.8;"/>
     </g>
     <g id="text_42">
      <!-- $\mathdefault{1995}$ -->
      <g style="fill:#262626;" transform="translate(270.896516 289.291591)scale(0.0833 -0.0833)">
       <use transform="scale(0.996264)" xlink:href="#CMR17-49"/>
       <use transform="translate(45.690477 0)scale(0.996264)" xlink:href="#CMR17-57"/>
       <use transform="translate(91.380954 0)scale(0.996264)" xlink:href="#CMR17-57"/>
       <use transform="translate(137.071431 0)scale(0.996264)" xlink:href="#CMR17-53"/>
      </g>
     </g>
    </g>
    <g id="xtick_20">
     <g id="line2d_47">
      <path clip-path="url(#p8482a80b4a)" d="M 317.481689 276.528488 
L 317.481689 187.534944 
" style="fill:none;stroke:#cccccc;stroke-linecap:round;stroke-width:0.8;"/>
     </g>
     <g id="text_43">
      <!-- $\mathdefault{2000}$ -->
      <g style="fill:#262626;" transform="translate(308.664017 289.291591)scale(0.0833 -0.0833)">
       <use transform="scale(0.996264)" xlink:href="#CMR17-50"/>
       <use transform="translate(45.690477 0)scale(0.996264)" xlink:href="#CMR17-48"/>
       <use transform="translate(91.380954 0)scale(0.996264)" xlink:href="#CMR17-48"/>
       <use transform="translate(137.071431 0)scale(0.996264)" xlink:href="#CMR17-48"/>
      </g>
     </g>
    </g>
    <g id="xtick_21">
     <g id="line2d_48">
      <path clip-path="url(#p8482a80b4a)" d="M 355.24919 276.528488 
L 355.24919 187.534944 
" style="fill:none;stroke:#cccccc;stroke-linecap:round;stroke-width:0.8;"/>
     </g>
     <g id="text_44">
      <!-- $\mathdefault{2005}$ -->
      <g style="fill:#262626;" transform="translate(346.431518 289.291591)scale(0.0833 -0.0833)">
       <use transform="scale(0.996264)" xlink:href="#CMR17-50"/>
       <use transform="translate(45.690477 0)scale(0.996264)" xlink:href="#CMR17-48"/>
       <use transform="translate(91.380954 0)scale(0.996264)" xlink:href="#CMR17-48"/>
       <use transform="translate(137.071431 0)scale(0.996264)" xlink:href="#CMR17-53"/>
      </g>
     </g>
    </g>
    <g id="xtick_22">
     <g id="line2d_49">
      <path clip-path="url(#p8482a80b4a)" d="M 393.016691 276.528488 
L 393.016691 187.534944 
" style="fill:none;stroke:#cccccc;stroke-linecap:round;stroke-width:0.8;"/>
     </g>
     <g id="text_45">
      <!-- $\mathdefault{2010}$ -->
      <g style="fill:#262626;" transform="translate(384.199019 289.291591)scale(0.0833 -0.0833)">
       <use transform="scale(0.996264)" xlink:href="#CMR17-50"/>
       <use transform="translate(45.690477 0)scale(0.996264)" xlink:href="#CMR17-48"/>
       <use transform="translate(91.380954 0)scale(0.996264)" xlink:href="#CMR17-49"/>
       <use transform="translate(137.071431 0)scale(0.996264)" xlink:href="#CMR17-48"/>
      </g>
     </g>
    </g>
    <g id="xtick_23">
     <g id="line2d_50">
      <path clip-path="url(#p8482a80b4a)" d="M 430.784192 276.528488 
L 430.784192 187.534944 
" style="fill:none;stroke:#cccccc;stroke-linecap:round;stroke-width:0.8;"/>
     </g>
     <g id="text_46">
      <!-- $\mathdefault{2015}$ -->
      <g style="fill:#262626;" transform="translate(421.96652 289.291591)scale(0.0833 -0.0833)">
       <use transform="scale(0.996264)" xlink:href="#CMR17-50"/>
       <use transform="translate(45.690477 0)scale(0.996264)" xlink:href="#CMR17-48"/>
       <use transform="translate(91.380954 0)scale(0.996264)" xlink:href="#CMR17-49"/>
       <use transform="translate(137.071431 0)scale(0.996264)" xlink:href="#CMR17-53"/>
      </g>
     </g>
    </g>
    <g id="xtick_24">
     <g id="line2d_51">
      <path clip-path="url(#p8482a80b4a)" d="M 468.551693 276.528488 
L 468.551693 187.534944 
" style="fill:none;stroke:#cccccc;stroke-linecap:round;stroke-width:0.8;"/>
     </g>
     <g id="text_47">
      <!-- $\mathdefault{2020}$ -->
      <g style="fill:#262626;" transform="translate(459.73402 289.291591)scale(0.0833 -0.0833)">
       <use transform="scale(0.996264)" xlink:href="#CMR17-50"/>
       <use transform="translate(45.690477 0)scale(0.996264)" xlink:href="#CMR17-48"/>
       <use transform="translate(91.380954 0)scale(0.996264)" xlink:href="#CMR17-50"/>
       <use transform="translate(137.071431 0)scale(0.996264)" xlink:href="#CMR17-48"/>
      </g>
     </g>
    </g>
   </g>
   <g id="matplotlib.axis_8">
    <g id="ytick_19">
     <g id="line2d_52">
      <path clip-path="url(#p8482a80b4a)" d="M 279.714188 276.528488 
L 468.551693 276.528488 
" style="fill:none;stroke:#cccccc;stroke-linecap:round;stroke-width:0.8;"/>
     </g>
     <g id="text_48">
      <!-- $\mathdefault{0.0}$ -->
      <g style="fill:#262626;" transform="translate(261.447159 279.41004)scale(0.0833 -0.0833)">
       <use transform="scale(0.996264)" xlink:href="#CMR17-48"/>
       <use transform="translate(45.690477 0)scale(0.996264)" xlink:href="#CMMI12-58"/>
       <use transform="translate(72.787654 0)scale(0.996264)" xlink:href="#CMR17-48"/>
      </g>
     </g>
    </g>
    <g id="ytick_20">
     <g id="line2d_53">
      <path clip-path="url(#p8482a80b4a)" d="M 279.714188 254.280102 
L 468.551693 254.280102 
" style="fill:none;stroke:#cccccc;stroke-linecap:round;stroke-width:0.8;"/>
     </g>
     <g id="text_49">
      <!-- $\mathdefault{0.5}$ -->
      <g style="fill:#262626;" transform="translate(261.447159 257.161653)scale(0.0833 -0.0833)">
       <use transform="scale(0.996264)" xlink:href="#CMR17-48"/>
       <use transform="translate(45.690477 0)scale(0.996264)" xlink:href="#CMMI12-58"/>
       <use transform="translate(72.787654 0)scale(0.996264)" xlink:href="#CMR17-53"/>
      </g>
     </g>
    </g>
    <g id="ytick_21">
     <g id="line2d_54">
      <path clip-path="url(#p8482a80b4a)" d="M 279.714188 232.031716 
L 468.551693 232.031716 
" style="fill:none;stroke:#cccccc;stroke-linecap:round;stroke-width:0.8;"/>
     </g>
     <g id="text_50">
      <!-- $\mathdefault{1.0}$ -->
      <g style="fill:#262626;" transform="translate(261.447159 234.913267)scale(0.0833 -0.0833)">
       <use transform="scale(0.996264)" xlink:href="#CMR17-49"/>
       <use transform="translate(45.690477 0)scale(0.996264)" xlink:href="#CMMI12-58"/>
       <use transform="translate(72.787654 0)scale(0.996264)" xlink:href="#CMR17-48"/>
      </g>
     </g>
    </g>
    <g id="ytick_22">
     <g id="line2d_55">
      <path clip-path="url(#p8482a80b4a)" d="M 279.714188 209.78333 
L 468.551693 209.78333 
" style="fill:none;stroke:#cccccc;stroke-linecap:round;stroke-width:0.8;"/>
     </g>
     <g id="text_51">
      <!-- $\mathdefault{1.5}$ -->
      <g style="fill:#262626;" transform="translate(261.447159 212.664881)scale(0.0833 -0.0833)">
       <use transform="scale(0.996264)" xlink:href="#CMR17-49"/>
       <use transform="translate(45.690477 0)scale(0.996264)" xlink:href="#CMMI12-58"/>
       <use transform="translate(72.787654 0)scale(0.996264)" xlink:href="#CMR17-53"/>
      </g>
     </g>
    </g>
    <g id="ytick_23">
     <g id="line2d_56">
      <path clip-path="url(#p8482a80b4a)" d="M 279.714188 187.534944 
L 468.551693 187.534944 
" style="fill:none;stroke:#cccccc;stroke-linecap:round;stroke-width:0.8;"/>
     </g>
     <g id="text_52">
      <!-- $\mathdefault{2.0}$ -->
      <g style="fill:#262626;" transform="translate(261.447159 190.416495)scale(0.0833 -0.0833)">
       <use transform="scale(0.996264)" xlink:href="#CMR17-50"/>
       <use transform="translate(45.690477 0)scale(0.996264)" xlink:href="#CMMI12-58"/>
       <use transform="translate(72.787654 0)scale(0.996264)" xlink:href="#CMR17-48"/>
      </g>
     </g>
    </g>
   </g>
   <g id="line2d_57">
    <path clip-path="url(#p8482a80b4a)" d="M 309.928189 276.528488 
L 317.481689 276.528488 
L 325.035189 276.528488 
L 332.58869 276.528488 
L 340.14219 276.528488 
L 347.69569 276.528488 
L 355.24919 276.528488 
L 362.80269 274.214656 
L 370.35619 274.926605 
L 377.909691 274.081166 
L 385.463191 273.502708 
L 393.016691 274.30365 
L 400.570191 275.416069 
L 408.123691 275.238082 
L 415.677191 276.528488 
L 423.230692 272.479282 
L 430.784192 270.966392 
L 438.337692 262.423012 
L 445.891192 246.849142 
L 453.444692 244.134838 
L 460.998192 235.324478 
L 468.551693 200.528002 
" style="fill:none;stroke:#000000;stroke-linecap:round;stroke-opacity:0.8;stroke-width:1.5;"/>
   </g>
   <g id="line2d_58">
    <path clip-path="url(#p8482a80b4a)" d="M 309.928189 276.528488 
L 317.481689 276.528488 
L 325.035189 276.528488 
L 332.58869 276.528488 
L 340.14219 276.528488 
L 347.69569 276.528488 
L 355.24919 276.528488 
L 362.80269 275.149089 
L 370.35619 274.926605 
L 377.909691 275.238082 
L 385.463191 274.748618 
L 393.016691 275.327076 
L 400.570191 275.416069 
L 408.123691 275.238082 
L 415.677191 276.528488 
L 423.230692 273.814185 
L 430.784192 272.568276 
L 438.337692 267.006179 
L 445.891192 255.837489 
L 453.444692 254.769567 
L 460.998192 247.917064 
L 468.551693 222.19793 
" style="fill:none;stroke:#a9a9a9;stroke-dasharray:7.5,1.5;stroke-dashoffset:0;stroke-opacity:0.8;stroke-width:1.5;"/>
   </g>
   <g id="line2d_59">
    <path clip-path="url(#p8482a80b4a)" d="M 309.928189 276.528488 
L 317.481689 276.528488 
L 325.035189 276.528488 
L 332.58869 276.528488 
L 340.14219 276.528488 
L 347.69569 276.528488 
L 355.24919 276.528488 
L 362.80269 275.594056 
L 370.35619 276.528488 
L 377.909691 275.371572 
L 385.463191 275.282579 
L 393.016691 275.505063 
L 400.570191 276.528488 
L 408.123691 276.528488 
L 415.677191 276.528488 
L 423.230692 275.193585 
L 430.784192 274.926605 
L 438.337692 271.945321 
L 445.891192 267.540141 
L 453.444692 265.89376 
L 460.998192 263.935902 
L 468.551693 254.85856 
" style="fill:none;stroke:#708090;stroke-dasharray:4.5,1.5,1.5,1.5;stroke-dashoffset:0;stroke-opacity:0.8;stroke-width:1.5;"/>
   </g>
   <g id="patch_18">
    <path d="M 279.714188 276.528488 
L 279.714188 187.534944 
" style="fill:none;stroke:#cccccc;stroke-linecap:square;stroke-linejoin:miter;stroke-width:0.8;"/>
   </g>
   <g id="patch_19">
    <path d="M 468.551693 276.528488 
L 468.551693 187.534944 
" style="fill:none;stroke:#cccccc;stroke-linecap:square;stroke-linejoin:miter;stroke-width:0.8;"/>
   </g>
   <g id="patch_20">
    <path d="M 279.714188 276.528488 
L 468.551693 276.528488 
" style="fill:none;stroke:#cccccc;stroke-linecap:square;stroke-linejoin:miter;stroke-width:0.8;"/>
   </g>
   <g id="patch_21">
    <path d="M 279.714188 187.534944 
L 468.551693 187.534944 
" style="fill:none;stroke:#cccccc;stroke-linecap:square;stroke-linejoin:miter;stroke-width:0.8;"/>
   </g>
   <g id="text_53">
    <!-- Other synthetic narcotics -->
    <g style="fill:#262626;" transform="translate(318.978563 181.534944)scale(0.1 -0.1)">
     <use transform="scale(0.996264)" xlink:href="#CMR17-79"/>
     <use transform="translate(71.714788 0)scale(0.996264)" xlink:href="#CMR17-116"/>
     <use transform="translate(106.995556 0)scale(0.996264)" xlink:href="#CMR17-104"/>
     <use transform="translate(157.890926 0)scale(0.996264)" xlink:href="#CMR17-101"/>
     <use transform="translate(198.376586 0)scale(0.996264)" xlink:href="#CMR17-114"/>
     <use transform="translate(263.733321 0)scale(0.996264)" xlink:href="#CMR17-115"/>
     <use transform="translate(299.534658 0)scale(0.996264)" xlink:href="#CMR17-121"/>
     <use transform="translate(347.827574 0)scale(0.996264)" xlink:href="#CMR17-110"/>
     <use transform="translate(396.12049 0)scale(0.996264)" xlink:href="#CMR17-116"/>
     <use transform="translate(431.401258 0)scale(0.996264)" xlink:href="#CMR17-104"/>
     <use transform="translate(482.296628 0)scale(0.996264)" xlink:href="#CMR17-101"/>
     <use transform="translate(522.782288 0)scale(0.996264)" xlink:href="#CMR17-116"/>
     <use transform="translate(558.063056 0)scale(0.996264)" xlink:href="#CMR17-105"/>
     <use transform="translate(582.934114 0)scale(0.996264)" xlink:href="#CMR17-99"/>
     <use transform="translate(653.495741 0)scale(0.996264)" xlink:href="#CMR17-110"/>
     <use transform="translate(704.391111 0)scale(0.996264)" xlink:href="#CMR17-97"/>
     <use transform="translate(750.081588 0)scale(0.996264)" xlink:href="#CMR17-114"/>
     <use transform="translate(785.362356 0)scale(0.996264)" xlink:href="#CMR17-99"/>
     <use transform="translate(825.848016 0)scale(0.996264)" xlink:href="#CMR17-111"/>
     <use transform="translate(871.538493 0)scale(0.996264)" xlink:href="#CMR17-116"/>
     <use transform="translate(906.819261 0)scale(0.996264)" xlink:href="#CMR17-105"/>
     <use transform="translate(931.69032 0)scale(0.996264)" xlink:href="#CMR17-99"/>
     <use transform="translate(972.17598 0)scale(0.996264)" xlink:href="#CMR17-115"/>
    </g>
   </g>
   <g id="legend_1">
    <g id="line2d_60">
     <path d="M 289.379313 219.936351 
L 309.379313 219.936351 
" style="fill:none;stroke:#000000;stroke-linecap:round;stroke-opacity:0.8;stroke-width:1.5;"/>
    </g>
    <g id="line2d_61"/>
    <g id="text_54">
     <!-- total -->
     <g style="fill:#262626;" transform="translate(317.379313 223.436351)scale(0.1 -0.1)">
      <use transform="scale(0.996264)" xlink:href="#CMR17-116"/>
      <use transform="translate(35.280768 0)scale(0.996264)" xlink:href="#CMR17-111"/>
      <use transform="translate(80.971245 0)scale(0.996264)" xlink:href="#CMR17-116"/>
      <use transform="translate(116.252013 0)scale(0.996264)" xlink:href="#CMR17-97"/>
      <use transform="translate(161.94249 0)scale(0.996264)" xlink:href="#CMR17-108"/>
     </g>
    </g>
    <g id="line2d_62">
     <path d="M 289.379313 234.614476 
L 309.379313 234.614476 
" style="fill:none;stroke:#a9a9a9;stroke-dasharray:7.5,1.5;stroke-dashoffset:0;stroke-opacity:0.8;stroke-width:1.5;"/>
    </g>
    <g id="line2d_63"/>
    <g id="text_55">
     <!-- male -->
     <g style="fill:#262626;" transform="translate(317.379313 238.114476)scale(0.1 -0.1)">
      <use transform="scale(0.996264)" xlink:href="#CMR17-109"/>
      <use transform="translate(76.91959 0)scale(0.996264)" xlink:href="#CMR17-97"/>
      <use transform="translate(122.610067 0)scale(0.996264)" xlink:href="#CMR17-108"/>
      <use transform="translate(147.481125 0)scale(0.996264)" xlink:href="#CMR17-101"/>
     </g>
    </g>
    <g id="line2d_64">
     <path d="M 289.379313 249.292601 
L 309.379313 249.292601 
" style="fill:none;stroke:#708090;stroke-dasharray:4.5,1.5,1.5,1.5;stroke-dashoffset:0;stroke-opacity:0.8;stroke-width:1.5;"/>
    </g>
    <g id="line2d_65"/>
    <g id="text_56">
     <!-- female -->
     <g style="fill:#262626;" transform="translate(317.379313 252.792601)scale(0.1 -0.1)">
      <defs>
       <path d="M 15.296875 40.390625 
L 26.703125 40.390625 
L 26.703125 43 
L 15.09375 43 
L 15.09375 55.296875 
C 15.09375 63.6875 19.296875 68.390625 23.59375 68.390625 
C 24.90625 68.390625 26.40625 68.171875 27.40625 67.796875 
C 26.59375 67.59375 24.5 66.890625 24.5 64.390625 
C 24.5 61.796875 26.5 61 27.90625 61 
C 29.296875 61 31.296875 61.796875 31.296875 64.390625 
C 31.296875 68.015625 27.703125 70 23.703125 70 
C 18 70 10.203125 65.796875 10.203125 55.09375 
L 10.203125 43 
L 2.203125 43 
L 2.203125 40.390625 
L 10.203125 40.390625 
L 10.203125 6.890625 
C 10.203125 3.09375 9.796875 2.59375 3.40625 2.59375 
L 3.40625 0 
C 5.796875 0.1875 10.40625 0.1875 13 0.1875 
C 15.90625 0.1875 21 0.1875 23.703125 0 
L 23.703125 2.59375 
C 16.5 2.59375 15.296875 2.59375 15.296875 7.09375 
z
" id="CMR17-102"/>
      </defs>
      <use transform="scale(0.996264)" xlink:href="#CMR17-102"/>
      <use transform="translate(27.473512 0)scale(0.996264)" xlink:href="#CMR17-101"/>
      <use transform="translate(67.959173 0)scale(0.996264)" xlink:href="#CMR17-109"/>
      <use transform="translate(144.878763 0)scale(0.996264)" xlink:href="#CMR17-97"/>
      <use transform="translate(190.56924 0)scale(0.996264)" xlink:href="#CMR17-108"/>
      <use transform="translate(215.440298 0)scale(0.996264)" xlink:href="#CMR17-101"/>
     </g>
    </g>
   </g>
  </g>
  <g id="text_57">
   <!-- Indiana -->
   <g style="fill:#262626;" transform="translate(224.739373 14.336285)scale(0.12 -0.12)">
    <defs>
     <path d="M 19.703125 60.90625 
C 19.703125 65.390625 20.90625 65.390625 28.09375 65.390625 
L 28.09375 68 
C 24.90625 67.796875 19.796875 67.796875 16.40625 67.796875 
C 13 67.796875 7.90625 67.796875 4.703125 68 
L 4.703125 65.390625 
C 11.90625 65.390625 13.09375 65.390625 13.09375 60.90625 
L 13.09375 7.078125 
C 13.09375 2.59375 11.90625 2.59375 4.703125 2.59375 
L 4.703125 0 
C 7.90625 0.1875 13 0.1875 16.40625 0.1875 
C 19.796875 0.1875 24.90625 0.1875 28.09375 0 
L 28.09375 2.59375 
C 20.90625 2.59375 19.703125 2.59375 19.703125 7.078125 
z
" id="CMR17-73"/>
    </defs>
    <use transform="scale(0.996264)" xlink:href="#CMR17-73"/>
    <use transform="translate(32.638409 0)scale(0.996264)" xlink:href="#CMR17-110"/>
    <use transform="translate(83.533779 0)scale(0.996264)" xlink:href="#CMR17-100"/>
    <use transform="translate(134.429149 0)scale(0.996264)" xlink:href="#CMR17-105"/>
    <use transform="translate(159.300207 0)scale(0.996264)" xlink:href="#CMR17-97"/>
    <use transform="translate(204.990684 0)scale(0.996264)" xlink:href="#CMR17-110"/>
    <use transform="translate(255.886054 0)scale(0.996264)" xlink:href="#CMR17-97"/>
   </g>
  </g>
 </g>
 <defs>
  <clipPath id="p56469965e0">
   <rect height="88.993544" width="188.837504" x="43.667308" y="45.145274"/>
  </clipPath>
  <clipPath id="p02f1600507">
   <rect height="88.993544" width="188.837504" x="279.714188" y="45.145274"/>
  </clipPath>
  <clipPath id="pd6d133a431">
   <rect height="88.993544" width="188.837504" x="43.667308" y="187.534944"/>
  </clipPath>
  <clipPath id="p8482a80b4a">
   <rect height="88.993544" width="188.837504" x="279.714188" y="187.534944"/>
  </clipPath>
 </defs>
</svg>
